<svg xmlns="http://www.w3.org/2000/svg" viewBox="0 0 225 200"><defs><style>.cls-1{fill:#9e111b;}</style></defs><g id="Layer_3" data-name="Layer 3"><path class="cls-1" d="M120.71,138.87c1.1-1.45,2-3,3-4.37a6.84,6.84,0,0,1,4.52-2.81c5.47-1.07,10.91-2.27,16.37-3.41s11.06-2.28,16.59-3.42c2-.42,4-.86,6-1.29a2.87,2.87,0,0,1,3.23,2.16,2.82,2.82,0,0,1-.66,1.89c-1.22,1.94-2.48,3.86-3.72,5.79-1.49,2.34-3,4.68-4.46,7-.11.18-.33.29,0,.5a1.81,1.81,0,0,1,.91,2,1.94,1.94,0,0,1-1.3,1.76c-.2.06-.24.09-.19.31a2.32,2.32,0,0,1-1.66,2.82c-.3.08-.27.23-.27.43a2.38,2.38,0,0,1-1.61,2.37.79.79,0,0,0-.49.57,2.77,2.77,0,0,1-2.9,1.79.56.56,0,0,0-.65.32c-.7,1.06-1.43,2.11-2.13,3.17a4.13,4.13,0,0,1-2.71,1.85c-4,.89-7.95,1.88-11.92,2.82q-7.77,1.85-15.55,3.69c-5.18,1.22-10.38,2.41-15.56,3.64a4.23,4.23,0,0,1-2.15,0,1.81,1.81,0,0,1-.93-2.83c1.19-1.88,2.47-3.71,3.7-5.56l5.91-8.85a.58.58,0,0,0,0-.84,22.48,22.48,0,0,1-2.43-4.11c-.2.5-.28,1-.68,1.26-.19.14-.07.26,0,.41.46,1,.9,2.08,1.37,3.11a.94.94,0,0,1-.16,1.18.84.84,0,0,1-1.12.09,12.79,12.79,0,0,1-2.8-2.2,4.33,4.33,0,0,1-1.09,2.54c-.22.27-.47.56-.83.53a1.09,1.09,0,0,0-1,.62,4.7,4.7,0,0,1-1.19,1.12c-.22.15-.54.38-.74.24-.61-.43-.85.05-1.19.38a3.43,3.43,0,0,1-4.2.22,1.16,1.16,0,0,1-.49-.64c-.09-.69-.54-.7-1.08-.7a2.56,2.56,0,0,0-2.08.91,8.43,8.43,0,0,1-6.07,2.94,22.07,22.07,0,0,0-6.81,1.8A89.63,89.63,0,0,1,68,164.12a37.75,37.75,0,0,1-13.76,1,5.22,5.22,0,0,1-4.51-3.7,13,13,0,0,1-.67-5,82.77,82.77,0,0,1,1-9.69,1.86,1.86,0,0,1,.13-.46c.18-.38.12-.56-.32-.74a2.7,2.7,0,0,1-1.38-3.43c1.19-4.3,2.34-8.62,3.62-12.89a41,41,0,0,1,4.42-10.72,17.47,17.47,0,0,1,6.31-6,84.15,84.15,0,0,1,10.06-4.32,32.41,32.41,0,0,0,5-2.16,4.9,4.9,0,0,1,1.39-.54,3,3,0,0,0,2-1.52,16,16,0,0,0,1.75-4c.1-.36.17-.59-.36-.6s-1-.53-1.37-.93c-.1-.1-.11-.26-.33-.29a2.92,2.92,0,0,1-2.67-2.94c0-.51-.14-.61-.61-.61a2.81,2.81,0,0,1-2.4-2.09c-.1-.63.31-.51.62-.34A1.15,1.15,0,0,0,77.41,91a1.17,1.17,0,0,0-.34-.65c-.56-.63-1.12-1.26-1.65-1.91a5.5,5.5,0,0,1-.47-6,.66.66,0,0,0-.08-.92A3,3,0,0,1,74,79.09c.08-.58.35-.76.84-.46a1.51,1.51,0,0,0,2.32-1.18,17.57,17.57,0,0,0,.13-3,9.82,9.82,0,0,1,7.4-9,2.19,2.19,0,0,0,1.75-1.15,7.79,7.79,0,0,1,4.72-3.37A13.71,13.71,0,0,1,103.8,63a1.63,1.63,0,0,0,1.12.35,9.31,9.31,0,0,1,5.63,1.25,8.17,8.17,0,0,1,3.83,4.52c.11.37.22.46.65.4a4,4,0,0,1,2.67.84,6.89,6.89,0,0,1,3.09,7.25,10.65,10.65,0,0,1-.64,1.93,3.71,3.71,0,0,0-.17,1.81c.1.71.42.94,1.11.75.4-.11.54,0,.56.42a2.09,2.09,0,0,1-2.28,2.27c-.28,0-.26.07-.26.3a4.64,4.64,0,0,1-3.72,4.58.77.77,0,0,1-.4,0c-.67-.3-.82.05-.89.62a42.07,42.07,0,0,1-.74,5.6,23.91,23.91,0,0,1-3.28,6.92,43.22,43.22,0,0,1-5.18,7.09c-.18.19-.18.31,0,.48a1.62,1.62,0,0,0,.51.32,18.32,18.32,0,0,1,3.11,1.36,11.5,11.5,0,0,1,4.5,4.72,72.27,72.27,0,0,1,3.64,8.2,45,45,0,0,0,4.26,8.35,6.94,6.94,0,0,1,.63,1.13,1.49,1.49,0,0,1-.93,2.23c-.93.39-.93.39-.42,1.29Zm34.67-9.09h-.23l-.19-.06c0-.21,0-.46-.29-.27s-.67.42-1,.65-.55.34-.45.73a7.66,7.66,0,0,0-1.61,1.7l1.49-1c-.29.62-1.09.81-1.37,1.54.31-.06.49-.35.75-.15a.18.18,0,0,0,.13.25h.15a.9.9,0,0,0,1.5-.34c.36.21.7.52,1-.14.07-.2.34-.29.47,0a.75.75,0,0,0-.07.12c0,.14,0,.14.14.1.66-.23,1.44-.24,1.84-1a.68.68,0,0,1,.52-.38c.45,0,.33-.27.37-.49a1.85,1.85,0,0,0,1.45-1.07s-.07,0-.12-.05c.52-.24,1.11-.36,1.42-.92.63-.29,1-.88,1.48-1.31a2.09,2.09,0,0,0-1.52,1.27c-.36,0-.65.85-1.08.1-.29,0-.53.47-.86.09l-.1-.31c.14-.36.64-.26.85-.73-.85.37-1.78.25-2.38,1-.22.25-.46.06-.68,0s-.39.4-.71.29c0-.24.25-.29.28-.53a1.21,1.21,0,0,0-1,.72Zm-27.73,8.48-.14,0a2.78,2.78,0,0,1-1.2,1.1c-.15.07.15.2.24.29v.21a.57.57,0,0,1,0,.49c-.27.56-.85.76-1.22,1.18-.53.59-1.1,1.14-1.67,1.67-.33.8-1.09,1.27-1.53,2-.28.48-1,.7-.92,1.53a2.19,2.19,0,0,1,1.45-1.15c.28,0,.41-.63.86-.25a5.1,5.1,0,0,0,.54-.54c.08-.09.27-.17.14-.32s-.23,0-.35.05a9.22,9.22,0,0,0-1.43.89,6.39,6.39,0,0,1,.83-1.24c.22-.27.51-.56.4-1,.36.19.48-.14.65-.31a2.6,2.6,0,0,1,.82-.7A4,4,0,0,0,127,140c.22-.12.54,0,.71-.25a6.58,6.58,0,0,0,1-1.56s0-.06,0-.08c.17-.24.52-.25.66-.53l.28-.09a4.74,4.74,0,0,0,2.43-1.67c.06-.17,0-.24-.2-.14.49-.18.79-.44.45-1,.09.1.16.25.32.23s0-.28.09-.32a5.91,5.91,0,0,0,1-.74c-1.14.24-1.2.27-1.42.86-.18,0-.51-.12-.28.34s-.19.11-.29.17l-.29.14c-.15-.37.57-.66.16-1s-.7.21-1.06.33c-.11-.35-.34-.14-.48-.08a2.93,2.93,0,0,0-.88.64c-.1.1-.22.34-.4.1s-.47,0-.51.07c-.12.26-.42.46-.35.79s.36.25.59.23c-.3.54-.95.74-1.39,1.36a2.36,2.36,0,0,0,1.07-.65c.2-.18.34-.51.71-.37l-.27.42c-.33.27-.72.47-.9.89Zm36.85-7.68c.29-.05,0-.22.07-.33-.13-.06-.26-.1-.33.08,0,0,0,.06,0,.06.17.07.22-.12.33-.14s-.05.23-.08.34v0Zm-17.33,24.19c.11,0,.23-.05.22-.18s-.12-.07-.19-.06a1.65,1.65,0,0,1,.32-.58c.33-.43.79-.79.86-1.39.85-.26,1.2-1.09,1.8-1.63a8,8,0,0,0-1.79,1.65,10.58,10.58,0,0,1-1.55,1.44c-.24.16-.22.22,0,.36l0,0,.19.25-.27.24c-.68.08-.73.83-1.22,1.13-.2.12-.62.22-.54.79.57-.7,1.42-.92,1.76-1.72C147,155.11,147.13,155,147.17,154.77Zm2.31-5.86,0,0c-.27,0-.31.26-.45.45l.46-.17c0,.33.18.16.31.16h.05a.67.67,0,0,0,.54-.52c.05-.18-.19-.12-.29-.19H150C149.79,148.66,149.52,148.59,149.48,148.91ZM120,148.2a12.54,12.54,0,0,0-.84,1c-.13.17.08.12.16.16v0a5.75,5.75,0,0,0-1.51,2c-.49.71.29.35.43.53,0,.4-.53.63-.39,1.09,0,.12,0,.31.18.29s.3-.12.28-.25a.76.76,0,0,1,.14-.62l.32.07c.31-.4.64-.79.93-1.2s-.17-.16-.24-.26l.42-.48.45-.72a1.71,1.71,0,0,0,.63-.47c.29-.4.58-.79.86-1.19.14-.2.19-.38-.17-.33l-.29-.61c-.1-.14-.18-.17-.32,0a6.55,6.55,0,0,0-1,1.13Zm27.28,4.56c.1-.4.44-.61.69-.89s.29-.34.17-.59a3.56,3.56,0,0,1-.75.92c-.12.12-.51.29-.09.54.11.18-.27.33,0,.53.53-.2.58-.74.79-1.18Zm9-14.77c.17-.25.52-.38.46-.85-.33.53-.9.24-1.29.5s-.79.26-.26.73a16.42,16.42,0,0,0-2.59,3c.77-.72,1.48-1.49,2.22-2.24.17-.17.29-.49.64-.41h0c.06.48.3.24.51.12a7.4,7.4,0,0,0-1.42,2c.64-.69,1.17-1.26,1.71-1.82.07-.08.21-.14.06-.25a.15.15,0,0,0-.22.08,1.34,1.34,0,0,0,.19-.85ZM113.11,163.5a2,2,0,0,0,.86-.87c-.33.3-.91.22-1,.76a16,16,0,0,0-1.48,1.61C112.17,164.68,112.51,164,113.11,163.5Zm46.71-28c0-.1-.22-.12-.1-.26s.18-.33-.14-.26-.46.1-.52.37,0,.4.19.47.4-.23.59-.36c-.16.57-.68.88-1.08,1.5.86-.41,1.12-1.15,1.61-1.68C160.15,135.32,159.93,135.28,159.82,135.51Zm-16.19,20.22,1.08-1.1c0,.1,0,.34.21.14.61-.63,1.2-1.27,1.8-1.9a2.42,2.42,0,0,0-1.44,1.06c-.16.26-.27.58-.59.71,0-.29.22-.53.26-.84-.29.76-1.18,1.09-1.31,1.95-.82-.16-.92.52-1.2,1l.16.17C142.94,156.52,143.29,156.13,143.63,155.73Zm17.17-20.17c0-.54,0-1.08.66-1.31a3.94,3.94,0,0,0-1.53.61c.74-.13.53.53.88.68a4.56,4.56,0,0,0-1.11,1,1.45,1.45,0,0,0,1.35-1.38Zm-10.55,10.07a8.42,8.42,0,0,0,1.25-1.86c.09-.27.13-.43-.23-.42-.06,0-.17-.06-.18,0-.48.75-1,1.51-1.41,2.28-.07.13.12.14.22.16A.25.25,0,0,0,150.25,145.63Zm-44.2,20.89.15.67c0,.53.22.19.31.09a9.4,9.4,0,0,1,1.4-1.51c-.29-.16-.44.13-.64.06l-.1-.12C106.49,165.46,106.33,165.57,106.05,166.52Zm32.76-30.58v0l0,0a.48.48,0,0,0,.57.2,1.35,1.35,0,0,0,.79-.34,3.39,3.39,0,0,0,1.53-1.27c.23,0,.33-.22.47-.35a16.13,16.13,0,0,1,2.61-2.12c-.16.67-.73,1-1.23,1.32a6.66,6.66,0,0,0-2,2,7.23,7.23,0,0,0,1-.84.6.6,0,0,1,.89-.11l.46-.24c.05.14.21.34,0,.39s-.47.48-.8.59c-.1,0-.22.12-.11.25a.19.19,0,0,0,.3,0c.2-.18.35-.42.65-.47l.14.08c-.08.09-.32.05-.27.23a.27.27,0,0,0,.37.2c.14-.06.27-.17.42-.22,1.19-.46,1.93-1.49,2.88-2.26-.55-.25-.67.46-1.09.48a1.47,1.47,0,0,1,1-.87,1,1,0,0,0,.84-.72l-.29-.39a1.88,1.88,0,0,0,1.68-.84c-.78-.13-1.27.34-1.83.62h0c-.18-.31-.28,0-.42.05s-.37.15-.55.24c-.06-.18,0-.47-.38-.34a1.51,1.51,0,0,0-.73.38c-.24.24-.39.66-.86.53.12-.3.53-.33.65-.69a.92.92,0,0,0-.64.22,14.66,14.66,0,0,0-2,1.66,2.41,2.41,0,0,1-1.2.82l.09-.29a.87.87,0,0,0,.33-.75l.14-.12a.56.56,0,0,0,.64-.06l1.6-1.17c-.49.15-1.09,0-1.41.53a.31.31,0,0,1-.51.11l-.16,0c-.21-.17-.38-.56-.68-.07-.09.13-.3.19-.45.28.13-.19.28-.5-.14-.33a18,18,0,0,0-2.28.65c-.25-.35-.64,0-.65.06-.07.5-.6.52-.8.85.23-.21.12-.54.43-.9a12.45,12.45,0,0,0-1.76.54c-.26.13-.42.28-.17.55a1.6,1.6,0,0,0-.93.33c-.35.25-.92.32-.87,1a.36.36,0,0,0-.42,0l.35-.65a3,3,0,0,0-1.56,1.31c.39,0,.55-.4.82-.6.08-.07.21-.41.39-.06-.7.53-1.05,1.37-1.77,1.89.41,0,.62-.24.81-.44.46-.48,1.27-.66,1.37-1.47.14.17.27.1.38,0a5.34,5.34,0,0,1,1.46-1.17c-.09.45-.79.44-.76,1a1.4,1.4,0,0,0-.86.9l-1.05.84c.07.14.05.34-.07.34-.55,0-.79.57-1.3.63.8,0,1.52-.41,2.31-.43,0,0,.09-.19.13-.28l.59-.23c.12.1.18,0,.23-.07l.21-.21c.32.5.39-.22.63-.12a1.82,1.82,0,0,0,.75-.43c.31-.26.59-.57,1-.53.1,0,.2,0,.23-.15v0c.28.08.44-.09.63-.25.52-.42.92-1,1.63-1.16-.3.51-.84.78-1.18,1.25a.57.57,0,0,0-.47.23c-.17.23-.71.34-.46.7S138.55,136,138.81,135.94Zm29.94-8.63.05,0s0-.07,0-.1a1.9,1.9,0,0,0,.57-.89c-.52.43-1.27.68-1.25,1.55.13.42.34.23.51.05s.45-.2,0-.35ZM138.82,158v-.64c-.54.36-1.08.51-1.31,1.18.3-.15.59-.16.71-.46s.39-.18.62-.1c0,.2-.16.25-.29.33-.54.36-1.21.59-1.36,1.35-.05.3-.05.31.12.24a3.64,3.64,0,0,0,1.66-1.42C138.76,158.32,139.34,158,138.82,158Zm-7.66-20.83a5.38,5.38,0,0,0-1.67,1c.3,0,.65.1.77-.33,0,0,.16-.16.16,0,0,.37.1.23.25.08a1.61,1.61,0,0,0,.55-.74,2.55,2.55,0,0,0,1.11-1A1.55,1.55,0,0,0,131.16,137.12Zm34.45-8.63c-.18-.12-.3,0-.41.1a1.66,1.66,0,0,1-1,.56V129a4.31,4.31,0,0,0,.39-.46c.06-.09-.09-.25-.18-.19-.63.43-1.35.78-1.59,1.61a6.1,6.1,0,0,0-1.22,1c-.06.88-1,1.09-1.39,1.77a1.07,1.07,0,0,0,.23-.07,31.59,31.59,0,0,1,2.5-1.95c.14-.07.16-.31.13-.5.08,0,.21.08.25.05.67-.69,1.65-1,2.23-1.8.75-.1,1.76-1,1.74-1.56A10.41,10.41,0,0,0,165.61,128.49Zm-28.87,24.37c.37.21.52-.22.8-.29.13.36.4.45.66.23a12.22,12.22,0,0,0,1.87-1.73A26.6,26.6,0,0,1,142,149c.09-.11.24-.16.31,0,.22.52.5.18.75.06s.39-.31.22-.65a11.92,11.92,0,0,1-.52-1.31,6.93,6.93,0,0,1-1.11,1c.09-.37.44-.53.67-.79s.43-.2.09-.41c0-.23.06-.51,0-.67-.21-.31,0-1.12-1-.69.47-.37.65-.65.39-1.08a20.3,20.3,0,0,0-2.54,2.33,12.83,12.83,0,0,1-2.53,2.41v0c0-.6.76-.63.91-1.2a6.09,6.09,0,0,0-1.27.92l-.05.06c-.66.31-.88,1-1.46,1.44l-.09.14c-.22.08-.36.31-.62.3-.53.08-.71.6-1.08.88a27.19,27.19,0,0,0-3,2.92,2.74,2.74,0,0,0,1.34-.69h0a.72.72,0,0,0,1.17,0,2.66,2.66,0,0,1,1-.75,2.5,2.5,0,0,0,1.27-1,1.21,1.21,0,0,0,.53-.72.61.61,0,0,1,1-.28h0l.1,0c.07.64-.51.84-.82,1.21s-.71.3-.71.77h0l0,0c.28.18.44,0,.61-.2A2.84,2.84,0,0,1,137,152c-.23.42-.78.57-1,1.09A1.23,1.23,0,0,0,136.74,152.86Zm27.9-21.58,0,0a1.91,1.91,0,0,0-.58.62c-.16.26-.35.61-.79.43,0-.13.22-.24.12-.35s-.17.06-.25.12a.79.79,0,0,1-.28.47h0c.09.24-.16.32-.22.49s-.54.19-.3.53a.4.4,0,0,0,.69,0,8.7,8.7,0,0,0,1.35-1.49l2.12-2a1.89,1.89,0,0,0,.45-.67c0-.1.11-.25-.06-.28s-.18.1-.28.16c-.27-.06-.42.15-.56.31A14.65,14.65,0,0,0,164.64,131.28ZM147.78,148.6c0,.23,0,.3.24.12a13.52,13.52,0,0,0,1.55-1.83.58.58,0,0,0,.11-.71,10.34,10.34,0,0,1-1.78,2.33l.92-1.45c-.68.36-.89,1.08-1.48,1.6ZM99.22,112.49a1.87,1.87,0,0,0-.81,1.15c-.81.17-.34,1-.8,1.39.19,0,.24-.28.47-.21-.14.56-1,.58-.87,1.32a6,6,0,0,1-.89,1c-.07.07-.21.15-.09.25s.21,0,.32,0c-.3.46-.88.41-1.29.66a6.61,6.61,0,0,1-2.82,1,12,12,0,0,1-5.53-.94c-.5-.2-.94-.6-1.54-.51a26.79,26.79,0,0,0-2.5-1.56c-.1-.52-.67-.59-1-1-.1-.13-.27.06-.38.17.19-.2.27-.35,0-.6-.47-.45-.87-1-1.3-1.47-.09-.1-.1-.35-.33-.18a.49.49,0,0,0-.11-.5,8.46,8.46,0,0,1-1.64-4.23,7.06,7.06,0,0,1,0-1.52c-2.09.89-2.54,1.61-2,3.15l.49-.32c-.53.4-.43.77-.13,1.28a5.27,5.27,0,0,1,.84,1.89l.12.85c-1.06-1.69-2.25-3.33-2-5.52a1.85,1.85,0,0,0-.29.08c-1.44.74-3.12.92-4.44,1.9-.89-.19-1.46.55-2.21.77-1.56.45-2.93,1.36-4.45,1.94-.21.08-.65.07-.5.58.05.18-.17.36-.41.33a.57.57,0,0,0-.56.16l.72-.53c-.12-.07-.19-.07-.24,0a14.71,14.71,0,0,0-5.23,4.77c-.32.53-1,.85-1,1.57l0,.16c0,.43-.57.4-.71.75A24.41,24.41,0,0,0,55.06,123h0a20.51,20.51,0,0,0-.86,2.54.76.76,0,0,0-.08.11c-.34.62-.23,1.35-.59,2a19.38,19.38,0,0,0-1.08,3.28c-.09.23-.24.51,0,.77-.36.23-.35.63-.43,1,0,.18-.24.39.14.41-.64.45-.59,1.23-.85,1.86a1.07,1.07,0,0,0-.06,1.08c-.7.37-.36,1.2-.76,1.71a.38.38,0,0,0-.05.5l.4-.22c-.77.63-.77,1.54-1.07,2.38a1.9,1.9,0,0,0,1.63-1.08c.19.39-.29.49-.08.85.81-.53,1.87-.35,2.7-1l-.19.42a9,9,0,0,1,2.58,0,17.39,17.39,0,0,1,3.06.46,12.45,12.45,0,0,1,3.08,1c-.28,0-.44.41-.79.16a3.32,3.32,0,0,0-1.7-.52c-1.09-.06-2.12-.41-3.21-.46a7.38,7.38,0,0,0-2.65,0,3.21,3.21,0,0,0-2.34.18c-.2.09-.37,0-.47.07-.48.23-1,.11-1.47.37a1.9,1.9,0,0,0-.29.28c.57.41,0,.84-.16,1-.36.42-.21.83-.3,1.4.82-.94,2.16-.67,2.73-1.76,0,.44-.49.49-.48.89a1.08,1.08,0,0,0,.89-.41c0,.12-.06.32.16.28a21.07,21.07,0,0,1,4.42.19,16.51,16.51,0,0,1,4.85,1.1c2.17.81,4.37,1.63,5.86,3.52a14.45,14.45,0,0,0,.5-2.35c-.34-.07-.24.43-.55.31-.1-.34.4-.47.31-.82.15,0,.36.26.39-.1s.31-.55,0-.82c0,0-.12.05-.18.07a1.38,1.38,0,0,0,.52-1c.11-.77.24-1.53.35-2.3,0-.15.18-.37-.13-.42a.48.48,0,0,0,.25-.37c.13-1,.31-2,.44-3,.11-.85.21-1.7.27-2.56s.16-1.66.17-2.49c-.27-.07-.29.33-.58.19.34-.31.71-.56.64-1.12-.18-1.39-.31-2.78-.42-4.18a18.08,18.08,0,0,0-1.37-5c-.28-.77-.8-1.45-1.15-2.19-.17-.34-.33-.43-.67-.17.51-.87-.37-1.11-.6-1.6s-.61-.15-.94.1c.45-.4.5-.7,0-1a2.83,2.83,0,0,1-.65-.55.53.53,0,0,0-.83,0l-.12-.2,0-.12a.56.56,0,0,1-.27-.38c.14,0,.36-.17.41-.12.58.58.85-.08,1.22-.29.17-.1.17-.46.51-.33a3.16,3.16,0,0,1-.81.82,1,1,0,0,0-.18.17c.07.06.15.17.19.16.26-.09.39-.14.45.25,0,.21.65.23.67.34.16.71.52.16.78.11-.51.85.59.88.66,1.44,0,.36.35.2.6,0-.31.29-.27.5,0,.79s.21.55.6.38c-.36.55.23.81.38,1.2a24.34,24.34,0,0,1,1.86,6.14c.11,1.12.26,2.25.32,3.38s0,2.08,0,3.16c.42-.27.58-.74,1-.86a3.58,3.58,0,0,0-1.12,3.81c.46-.94.92-1.81,1.34-2.7.27-.57.47-1.17.7-1.76,0-.07.17-.21-.07-.19,0,0-.09.09-.14.13a6.92,6.92,0,0,0,1-2.74c-.21-.05-.32.2-.56.08.39-.26.52-.69.94-1.11a25.37,25.37,0,0,1-.47,3.19,14,14,0,0,1-1.39,3.57c-.54.9-.58,2.07-1.5,2.77a.83.83,0,0,0-.2.5,3.07,3.07,0,0,1-.28,1.34c-.17.28,0,.37.22.43.46.14.34.39.06.55a1.07,1.07,0,0,0-.51,1c0,.3-.08.62-.12.93a8.13,8.13,0,0,0-.3,2.68,1.06,1.06,0,0,1-.17.91,1.31,1.31,0,0,0-.19,1c.64-.15.88-.79,1.39-1a2.24,2.24,0,0,1-.93,1c-.73.35-.81,1.16-1.28,1.69-.07.08,0,.21.08.3s-.09-.13-.13-.13c-.82,0-1.32.64-1.88,1.09-.2.15-.15.62-.21.95l.46,0a1,1,0,0,0,1-.08c.65.41,1.36.14,2,.16a20.23,20.23,0,0,0,3.3-.18c1.09-.12,2.28.15,3.24-.69,0,.12-.16.27-.12.34s.24,0,.36,0c1.56-.26,3.14-.45,4.68-.8a12.41,12.41,0,0,0,3-.84,12.64,12.64,0,0,0,3.38-3c1.59-1.71,3.2-3.4,4.74-5.15a3.22,3.22,0,0,1,2.31-1.27,21.66,21.66,0,0,0,2.2-.14l-.84-1-.68.6c.28-.39.73-.63.2-1.21-1.8-2-3.33-4.13-4.94-6.23a1.39,1.39,0,0,1,.73-2.27c1.19-.32,1.53,1,2.44,1.26.11,0,.12.12.12.21.06.8.4.57.87.07-.38.65-.38.65.15,1,0,0,.06,0,.06.06-.07.6.58.7.78,1.13s.49.39.8.05c0,.29-.48.33-.19.68.51.6.61.64,1.27.33-.6.31-.4.55-.08.9,1,1.12,2,2.29,3,3.42.63.69,1.15,1.53,2.21,1.73a2.57,2.57,0,0,1,1.22.52,29.44,29.44,0,0,1,2.32,2c0-.67,1-1.36-.2-2,1,.65.82-.16.94-.59a.14.14,0,0,1,0-.06c.44-2.52.84-5.05,1.16-7.59a25.69,25.69,0,0,1,.45-2.6,21.41,21.41,0,0,0,.37-2.36c.17-1.46.53-2.89.64-4.37a16.51,16.51,0,0,1,.42-2.66c-.26-.1-.28.29-.55.19a5.32,5.32,0,0,1,1.42-1.27c-.62.74-.62.74-.58,1.33l.61-.51a2.35,2.35,0,0,0-.69,2,26,26,0,0,1-.55,5.49,2.32,2.32,0,0,0-.08,1.19,2.7,2.7,0,0,0,.13-.3l1.31-3.42c.06-.17.12-.46.38-.33s.14.31,0,.52a4.42,4.42,0,0,0-.29.82,4.76,4.76,0,0,0-.55,1.8c.08.67-.33,1-.47,1.45a3.36,3.36,0,0,0-.17.79,1.73,1.73,0,0,1-.6,1.44.83.83,0,0,0-.33.87l1-.7a7.13,7.13,0,0,1-.9.92c-.21.24-.48.62-.39.75a1,1,0,0,1-.08,1,4.77,4.77,0,0,0-.28,1.59,6.52,6.52,0,0,0,1.18-1.76h0c.08.7-.42,1.11-.81,1.55-.21.24-.47.41-.5.77-.06,1.05-.29,2.08-.45,3.11-.07.42-.38.79-.23,1.24,0,.36-.46.67-.13,1.08-.11.34-.33.74.14.93s.53-.23.71-.47a7.17,7.17,0,0,0,.43-.69c.07-.13-.22-.3.09-.45a3.76,3.76,0,0,0,1-.92,26.87,26.87,0,0,1,2.36-2.53c.42-.34.89-.61,1-1.21,0-.13.12-.3.37-.17-.16.2-.39.37-.33.75,1.53-1.07,3.2-1.71,4.71-2.66-.28.33-.08.35.21.34s.22-.33.5-.25a4.86,4.86,0,0,1-1.34,1.3l.59-.67c-.66.15-1.34.23-1.57,1-.24-.26-.41-.1-.61.08s-.31.45-.63.46h0l.5-.67a22.25,22.25,0,0,0-6.12,5.54h0a1.41,1.41,0,0,0-1,1.25c0,.17-.41.22-.22.48s.36-.2.56-.07c0,.32,0,.48,0,.51s.29,0,.39-.15a25.53,25.53,0,0,1,5.89-4.77,12.43,12.43,0,0,1,3.1-1.63,3.13,3.13,0,0,0,1.53-.92c.08.18-.23.29-.1.48,1.58-.42,1.73-.61,1.21-1.51-.24.24-.36.58-.67.76a1.79,1.79,0,0,1,.45-.76.32.32,0,0,0,0-.47,16.12,16.12,0,0,0-1.39-1.89c0-.33-.08-.62-.49-.54-.25,0-.18-.05-.08-.13.33-.28,0-.5-.07-.71a54,54,0,0,1-3.07-7,57.21,57.21,0,0,0-2.81-6.24c-.21-.38-.37-.65-.59-.35.28-.19.25-.57-.07-1-.2-.26-.36-.55-.56-.8a10.53,10.53,0,0,0-4.94-3.57,4.16,4.16,0,0,1-2.12-1.11c-.14-.17-.33-.13-.55-.09-.51.09-.71.6-1.17.82,0-.34.37-.34.42-.72-.48.42-1.11,0-1.53.51,0,0-.12,0-.16,0-.32-.17-.4-.19-.44,0-.13.44-.58.71-.51,1.28a5.92,5.92,0,0,1-.08,1.63,7.25,7.25,0,0,1-.93,2.51,8,8,0,0,1-4,3.78,9.15,9.15,0,0,1-3.45.9c-1.26,0-2.59.35-3.65-.71.5.1,1,.22,1.5.27a6.48,6.48,0,0,0,1.76,0,7.4,7.4,0,0,1,1.41-.13,5.37,5.37,0,0,0,1.78-.53c1.78-.55,2.9-1.88,4.11-3.34-.44.18-.58.55-1.15.62a6.24,6.24,0,0,0,2.23-4.32c.05-.38.07-.42-.2-.55.15-.46.15-.46-.05-.49a1.12,1.12,0,0,0,.12-1.12,3.1,3.1,0,0,1-1.24,1.27c.15-.67.91-.84,1.13-1.44-1.07-.44-1.33-.32-1.22.57.22,0,.26-.35.51-.21,0,.4-1,.44-.4,1.06,0,.14-.27.19-.14.44A1.77,1.77,0,0,1,99.22,112.49Zm9.57,47.29v0a5,5,0,0,0,2-1.86c.6-.71,1.06-1.52,1.59-2.27s1.22-1.76,1.89-2.6c1-1.3,1.89-2.73,2.9-4,0,0,0-.09,0-.13a8.37,8.37,0,0,0,1.05-1.38c0-.07.19-.32,0-.28-.41.08-.21-.1-.09-.19a9.8,9.8,0,0,0,2.3-2.93,1.71,1.71,0,0,0,.25-.22,46.31,46.31,0,0,0,2.74-3.8,9.2,9.2,0,0,0,1.2-1.75c-.36,0-.38.39-.66.43.14-.54.7-.6,1-1a19.87,19.87,0,0,1,1.65-2.13c.56-.65,1-1.49,2-1.53a27.07,27.07,0,0,0,2.77-.54,2.7,2.7,0,0,0,1.78-.56c0,.33.23.18.39.16.7-.07,1.36-.44,2-.52,1.18-.13,2.32-.46,3.5-.6,1.63-.19,3.22-.71,4.84-1,1.88-.34,3.75-.78,5.62-1.18,2.19-.47,4.37-1,6.56-1.41s4.16-.86,6.24-1.29c1.25-.27,2.51-.5,3.74-.83.78-.2,1.72-.1,2.25-.94,0,0,.07,0,.13,0l-.16.42,1.1-.32c-.11-.15-.17-.33-.27-.36-.34-.08-.47-.35-.65-.6s-.42-.15-.64-.1c-1.21.24-2.43.44-3.64.7-2.4.52-4.81,1-7.22,1.52-2.11.42-4.2.88-6.31,1.3-3,.58-6,1.33-9,1.86-1.42.25-2.81.63-4.22.94a7.62,7.62,0,0,0-2.44.71c-.09-.22-.27-.14-.41-.11-.5.1-1,.24-1.49.34a33.69,33.69,0,0,0-3.52.69c-.61.19-1.4-.08-1.84.61,0-.1,0-.31-.1-.24-.6.33-1.45.24-1.79,1a5.34,5.34,0,0,0-2.26,2.3c-1.22,1.74-2.28,3.6-3.56,5.31a9.06,9.06,0,0,0-1.19,1.8,20.11,20.11,0,0,0-1.49,2.19c-.53.57-.74,1.37-1.48,1.92a.57.57,0,0,0,.6-.17c-.59.84-1.35,1.56-2,2.37-1.21,1.57-2.31,3.23-3.42,4.88-.12.19-.53.37-.28.73l-.27.19v0a3.08,3.08,0,0,1-.72,1.12c-.43.59-.17.73.35.85-.35,0-.71-.37-1.05.05-.79,1-1.2,2.16-1.9,3.17a.15.15,0,0,0-.23.07c-.41,1.22-1.84,1.82-2,3.23-1,.59-1.24,1.67-1.81,2.54a.76.76,0,0,0,.32,1.18c.45.26.55,0,.84-.33,1.46-1.55,2.28-3.53,3.68-5.11,0,0,0-.07-.09-.32l-.6.84-.17-.15a8.28,8.28,0,0,0,2.4-2.76c-.36-.12-.47.49-.82.18Zm.69,4.89.42-.47c.08.26.19.64.49.22s.78-.89,1.17-1.46c-.86.07-1.18.8-1.76,1.11-.17.14-.24.4-.52.39-.38.36-.44.89-.72,1.31-.18.25,0,.3.26.25C109.37,165.89,109.61,165.41,109.48,164.67ZM163,135.92h0c.3-.69.87-1.23,1.12-1.94l.27-.25a2.21,2.21,0,0,0,1.06-1.17c.09-.23.42-.47.09-.7s-.44.12-.62.28c-.85.7-1.36,1.71-2.18,2.43-.18.15-.44.44-.17.77a9.86,9.86,0,0,1-1.62,2.19c.23-.31.64-.19.9-.4a10.31,10.31,0,0,0-2.25,2.41c-.05.07-.13.17,0,.22s.2-.07.28-.14c.31.38-.38.44-.25.78.48,0,.6-.38.85-.64.08-.09.16-.18,0-.29s-.18-.07-.29,0a1.18,1.18,0,0,1-.37.14,9.93,9.93,0,0,1,1.3-1.53c.3-.3.5-.71,1-.62l-1.39,1.34c-.12.12-.38.24-.17.43s.2-.16.32-.23a1.92,1.92,0,0,0,.61-.52c.24-.32.74-.49.63-1-.2-.7.51-.84.76-1.26,0,.47-.61.66-.5,1.19l1.19-1.61Zm-18.86,17.62a2,2,0,0,0-.54.68.26.26,0,0,0,.13.4.24.24,0,0,0,.34-.13c.15-.46.55-.76.72-1.21l-.3.26a4.55,4.55,0,0,1,1.11-1.5,2.26,2.26,0,0,0,.87-1.25c.07.07.21.23.24.15.13-.51.73-.56.91-1,0-.08.26-.1.11-.26s-.25,0-.32.1a1.13,1.13,0,0,1-.47.56c-.38.17-.39.14-.46.48a.65.65,0,0,0-.81.28A16.23,16.23,0,0,0,144.16,153.54ZM162.41,129a.27.27,0,0,0-.41.07c-.42.7-1.18,1.11-1.61,2-.08-.88.72-1,1-1.73a12,12,0,0,0-1.94,1.88c-.07.12-.26.27-.11.41a.71.71,0,0,0,.43.14.62.62,0,0,0,.53-.25,9.58,9.58,0,0,0,.9-1.1c.12-.25.35-.59.59-.56.53.06.48-.53.85-.63.14,0-.17-.12-.21-.25s.3-.25.46-.37c.32-.23.69-.48.43-1a1.66,1.66,0,0,1-.95,1.08C162.22,128.72,162.35,128.91,162.41,129Zm-20.47,22c-.16,0-.36,0-.4-.18s.16-.24.29-.32a4.44,4.44,0,0,0,1.07-1.09c-.33.05-.55.37-.8,0-.1-.13-1,.62-.92.69.57.41-.08.46-.18.63a2.38,2.38,0,0,1-1.29,1,1,1,0,0,0-.58.65,4.09,4.09,0,0,1,1.77-.38.88.88,0,0,0,.7-.37,6.72,6.72,0,0,0,2.39-.41c.47-.1.23-.71,0-1s-.42,0-.54.16-.35.16-.52.23c.86-.83.86-.83.7-1.25-.28.24-.44.56-.89.65A1,1,0,0,0,141.94,151.06Zm8.1,2.75c0-.25.11-.34.3-.46s.41-.31.36-.53c-1,.11-1.19,1.17-1.94,1.6-.2.12-.31.29-.08.49l.15.17c-.33.59-1,.88-1.25,1.55l-.27.11c-.21.38-.3.87-.85,1,.78,0,.89-.08,1-.69.32-.19.63-.39.92,0s.37.13.53,0,.31-.37.47-.56c.28,0,1.53-.84,1.46-1.05s.14-1-.58-.91a1.51,1.51,0,0,1,.1-.38C150.6,153.64,150.28,153.78,150,153.81Zm-98.35-9.22c.15-.55.75-.79,1-1.32a1.36,1.36,0,0,0-1.39,1.81,5.08,5.08,0,0,0-.17.51,52.35,52.35,0,0,0-.9,5.42,42.24,42.24,0,0,0-.42,6.92A8.42,8.42,0,0,0,51,162.32a3.84,3.84,0,0,0,2.64,1.86,28.32,28.32,0,0,0,6.5.41,30.92,30.92,0,0,0,3.83-.52,51.33,51.33,0,0,0,8.72-2.29c2.68-1,5.22-2.28,8-3.1a22.5,22.5,0,0,1,5.8-1.37,6.89,6.89,0,0,0,5.18-2.49,3,3,0,0,1,2-1.24,11,11,0,0,1,2.37,0,4.09,4.09,0,0,1,1.73.58c.16.1.39.21.28.47s-.31.22-.52.24-.6-.29-.95-.23c0,.36.26.49.52.6a2.75,2.75,0,0,0,3.43-1.32.66.66,0,0,0-.07-.94,6.39,6.39,0,0,0-2.36-1.79l-3.34-1.37a8.56,8.56,0,0,1-1.6-.73c-.17-.12-.38-.26-.27-.49s.35-.14.52-.06c1.57.71,3.25,1.14,4.83,1.81,1.76.75,3.31,1.69,3.26,4a3.75,3.75,0,0,0,1.09-.9,1.85,1.85,0,0,0,.41-2.29,8.51,8.51,0,0,0-4.1-3.93c-.78-.3-1.56-.6-2.33-.93s-1.49-.68-2.23-1c-.19-.09-.35-.26-.23-.48s.32-.11.49-.05c1.79.64,3.6,1.24,5.34,2,1.43.63,2.24,1.95,3.22,3.07A2.86,2.86,0,0,1,104,152c0,.11,0,.25.14.26s.28-.12.39-.23a3.35,3.35,0,0,0,.55-3.79,27.88,27.88,0,0,0-2.1-2.85,4.18,4.18,0,0,0-2.61-1.67,38.46,38.46,0,0,1-4.88-1.67c-.25-.1-.58-.23-.47-.56s.43-.11.64-.05c1.68.47,3.31,1.1,5,1.47a4.85,4.85,0,0,1,2.89,1.72,8.93,8.93,0,0,0,2.85,2.65.88.88,0,0,0,1.24-.24,1.08,1.08,0,0,0,0-1.44,21.63,21.63,0,0,0-3-3.65,6,6,0,0,0-3-1.92,37.52,37.52,0,0,0-6.78-.45,3.1,3.1,0,0,0-2.29,1c-1.89,1.93-3.67,4-5.45,6A8.83,8.83,0,0,1,82,149.71a66,66,0,0,1-10.85,1.47c-2.24.06-4.49.09-6.75-.07a21.82,21.82,0,0,0-6.5.23,11.51,11.51,0,0,0-2.73,1c-.17.08-.37.17-.49,0s.1-.29.23-.38A8.26,8.26,0,0,1,58,150.54a21.42,21.42,0,0,1,6-.36c.54,0,.72-.11.8-.61a15.5,15.5,0,0,1,.56-2.79.47.47,0,0,0-.23-.61,10.61,10.61,0,0,0-2.85-1.39,28.38,28.38,0,0,0-8.11-1.58,1.76,1.76,0,0,0-1.82.65A6,6,0,0,1,51.69,144.59Zm63.08-58.71a20,20,0,0,0,.27-6.65,6.92,6.92,0,0,0-1-2.86c-.54-.9-1-1-1.91-.5-.39.24-.67,0-1-.15a3.07,3.07,0,0,0-4.45,1.63,9.58,9.58,0,0,1-1.31,2.71,6.7,6.7,0,0,1-2.94,2.45,6.06,6.06,0,0,1-5-.59c-.36-.2-.52-.17-.77.14A4.27,4.27,0,0,1,92.79,84c-.34,0-.5.07-.53.43a5,5,0,0,1-1.58,3.09,2.27,2.27,0,0,1-3.6-.36,8.49,8.49,0,0,1-.56-1.08,5.18,5.18,0,0,0-2.1-2.5c-.81-.47-2.68,0-3,.78A8,8,0,0,0,80.67,87a19.91,19.91,0,0,0,.59,4.41,4.18,4.18,0,0,0,4.41,3.37c.39,0,.58.08.65.48s.23,1,.35,1.51a17.31,17.31,0,0,0,3.11,6.6,19.36,19.36,0,0,0,8.87,6.31c3.2,1.14,5.23.52,7.25-2.2,1.37-1.84,2.63-3.76,3.85-5.7a19.1,19.1,0,0,0,3.36-9.43,15.19,15.19,0,0,1,1.12-5c.18-.4.13-.61-.38-.7a6.26,6.26,0,0,0-3.62.63c-.33.14-.63.39-1.07.19a4.38,4.38,0,0,1,2.28-2A3.24,3.24,0,0,1,114.77,85.88Zm29.32,66.25a4.47,4.47,0,0,0-.55.07c-1.79.42-3.59.84-5.37,1.31-2.27.61-4.55,1.13-6.83,1.67-.83.2-1.67.36-2.51.53-.19,0-.42.11-.56-.11s.09-.41.23-.56c.42-.48.86-.94,1.3-1.4,2-2.07,4.38-3.76,6.58-5.61,1.64-1.37,3.25-2.78,4.89-4.15.53-.45.89-.33,1.14.32.32.8.61,1.61.93,2.42a37.85,37.85,0,0,0,1.77,4.12c3.73-5.79,7.87-11.19,11.5-17.13-2.46.5-4.77.94-7.06,1.42-2.64.56-5.25,1.24-7.89,1.7-4,.7-8,1.59-12,2.32a1.35,1.35,0,0,0-.88.58c-2.31,3.29-4.65,6.55-6.92,9.87s-4.66,6.49-7,9.74c-.51.7-1,1.43-1.56,2.27,1.63-.36,3.1-.63,4.57-1,2.54-.66,5.14-1.12,7.7-1.75,2.24-.55,4.51-1,6.77-1.54,3.14-.74,6.32-1.35,9.43-2.21.38-.1.78-.17.93-.59A8.29,8.29,0,0,1,144.09,152.13ZM97.37,111.89a4.39,4.39,0,0,0-.34.5l-1.49,2.52c-.09.13-.15.41-.37.31s-.17-.35-.07-.54a1.89,1.89,0,0,1,.11-.25,23.24,23.24,0,0,1,2-3.77c.21-.32.19-.48-.17-.63-.58-.26-1.16-.53-1.71-.83a18.77,18.77,0,0,1-5.93-5,18.48,18.48,0,0,1-3.79-8.77c-.4.34-1-.19-1.28.19a3.88,3.88,0,0,0-.28,1.46A6.4,6.4,0,0,0,84,98.16a11.58,11.58,0,0,1-1.94,6,6.14,6.14,0,0,1-2.87,2.89c-.31.13-.27.39-.28.64a6.9,6.9,0,0,0,1,3.62,14.54,14.54,0,0,0,9.69,6.82c3,.7,6.59,0,7.6-4.13A4.2,4.2,0,0,0,97.37,111.89ZM113.07,150l2-2.88q2.44-3.56,4.88-7.13c.09-.15.3-.29.08-.53a6.82,6.82,0,0,1-.8-1.48c-.5-1-.49-1-1.46-.49a36.09,36.09,0,0,0-5.18,3.26,12.06,12.06,0,0,0-3,2.8c-.12.18-.26.29-.12.58A30.8,30.8,0,0,0,113.07,150Zm45.87-2.95a1.51,1.51,0,0,0,1.45-1.44c.05-.51-.12-.74-.65-.81a37.13,37.13,0,0,1-4.56-.78,2.6,2.6,0,0,0-1.41-.09c-.43.13-.81.33-.88.84a.91.91,0,0,0,.65,1A14.68,14.68,0,0,0,158.94,147.05Zm-.55,1.34c.07-.26,0-.4-.47-.48a18.92,18.92,0,0,1-3.29-.77c-.66-.25-1.29-.55-2-.74s-1,.3-1.24.76a.85.85,0,0,0,.37,1.23,14.23,14.23,0,0,0,4.88,1.56A1.69,1.69,0,0,0,158.39,148.39Zm-.18-7.16a8.17,8.17,0,0,0-1.92.15c-.78.24-.68.86-.73,1.44s.39.57.75.63a29.76,29.76,0,0,0,3.75.56,1.69,1.69,0,0,0,1.54-.71,1.24,1.24,0,0,0-.7-1.93C160,141.31,159.09,141.27,158.21,141.23Zm-3.78,11.08a3,3,0,0,0,1.6-.89c.42-.54.41-.65-.24-.79a18.83,18.83,0,0,1-3.68-1.19c-.39-.18-.73-.21-1,.25s-.36.83.11,1.21a8.29,8.29,0,0,0,2.1,1.06A11.3,11.3,0,0,0,154.43,152.31ZM149,133.22a.58.58,0,0,0,.57-.13c.55-.38.91-1,1.52-1.28a3.83,3.83,0,0,0,.8-.34c.62-.52.77-1.45,1.62-1.73-1.18.07-1.4,1.38-2.35,1.75A5.64,5.64,0,0,0,149,133.22Zm10.22,5.22-.12-.15a27.19,27.19,0,0,0-1.93,1.94,3.21,3.21,0,0,0,3.06-2.11,6.21,6.21,0,0,1-2.54,2Zm-52.27,4.5c.5,1.13,1.54,1.95,1.8,3.22C109.07,144.55,108,143.76,106.93,142.94Zm7.66,22a2.35,2.35,0,0,0,1.2-.8,2.65,2.65,0,0,1,1.45-1.1c.53-.16.7-.47.62-.73C116.38,162.67,115.68,164,114.59,164.94Zm34.11-30.61c.35,0,.63-.16,1-.1.11,0,.38-.3.31-.32-.6-.1,0-.29,0-.32.49-.56,1-1.1,1.62-1.78C150.36,132.52,149.81,133.75,148.7,134.33Zm-57.44-4.17c.44.29.51-.12.55-.37s-.33-.52-.57-.54a.53.53,0,0,0-.57.55C90.68,130.08,90.85,130.36,91.26,130.16Zm22.27,34a24.55,24.55,0,0,0-1.81,1.87C112.67,165.69,113.06,164.86,113.53,164.11Zm.8-7.21a3.19,3.19,0,0,0,.32-.23,6.53,6.53,0,0,0,1.51-1.8c0-.1.13-.28-.09-.31s-.17.06-.19.2a1.44,1.44,0,0,1-.46.71A4.69,4.69,0,0,0,114.33,156.9Zm42.37-20.34a7.14,7.14,0,0,0,1.74-2.24A5.42,5.42,0,0,0,156.7,136.56Zm-27.52,23a2.12,2.12,0,0,0-.25-.2c-.3-.1-.44.16-.62.32a.58.58,0,0,0-.17.61.2.2,0,0,0,.27.13C128.77,160.21,128.79,159.75,129.18,159.54Zm-22.49,5.83c.76,0,1.21-.49,1.55-1.69C107.53,164,107.4,164.88,106.69,165.37Zm50.22-30.63a6.1,6.1,0,0,0,1.33-1.72.63.63,0,0,0-.06-.52s-.08,0-.12,0c-.23.11,0,.27,0,.4a2.12,2.12,0,0,1-.36.72C157.43,134,157,134.21,156.91,134.74ZM150,151.86c-.91.3-1.25,1.12-1.73,1.81C149,153.2,149.33,152.39,150,151.86Zm-99.7-7.07c.06-.39.38-.83,0-1s-.52.24-.61.48C49.57,144.69,50.13,144.55,50.3,144.79Zm94,12.68a2.12,2.12,0,0,0,1.76-1.22Zm-12,.76c-.09-.19-.16-.29-.27-.27-.41.11-.82.21-1.22.36-.12,0-.27.2,0,.3.12,0,.13.32.35.22C131.58,158.67,131.74,158.15,132.32,158.23Zm31.13-27.45c-.51.37-.95.82-1.48,1.16-.1.06-.21.21-.08.34s.22,0,.28-.08C162.59,131.71,163.21,131.43,163.45,130.78Zm1.59-3.42c-.88-.1-1.14.44-1.43,1.08A3.38,3.38,0,0,0,165,127.36Zm-23.8,31a16.87,16.87,0,0,0-2.17,1.2A3.67,3.67,0,0,0,141.24,158.38ZM127.19,137c-.08,0-.09-.27-.23-.16a3.85,3.85,0,0,0-.9.81c-.15.23,0,.27.19.29A2.24,2.24,0,0,0,127.19,137Zm6.38,23.87a11.12,11.12,0,0,0,1.9-1.52A5.29,5.29,0,0,0,133.57,160.9ZM123,143.06c1-.37,1.58-1.06,1.51-1.67C124.22,142.08,123.49,142.39,123,143.06Zm24.82-9.46a4.45,4.45,0,0,0,1.45-1.38A3,3,0,0,0,147.84,133.6Zm2.1-2.51c.46-.29,1-.35,1.06-.93C150.78,130.61,149.75,130,149.94,131.09ZM65.63,148.91a2.23,2.23,0,0,1,.75-.56.45.45,0,0,0,.2-.32c0-.23-.29-.16-.45-.22s-.26.05-.3.18S65.73,148.47,65.63,148.91Zm86.55,3.41a8.89,8.89,0,0,1-1.11,1.43c-.06.08-.23.14-.09.26s.33.12.36,0C151.46,153.41,152.19,153.17,152.18,152.32ZM123.66,144c.46-.45,1.16-.68,1.37-1.36A3.72,3.72,0,0,0,123.66,144Zm-.31,18.08a3,3,0,0,0,.93-.75c.12-.12.47-.21.22-.44s-.24.18-.38.25c-.32.15-.36.84-1,.49,0,0-.17.12-.12.19A1.28,1.28,0,0,0,123.35,162.07ZM112.45,160c-1,.75-1.23,1.15-1.24,1.87C111.64,161.14,112,160.53,112.45,160Zm34.14-3c.11-.44.73-.38.92-.83a.15.15,0,0,0-.17-.22c-.46.09-.65.52-1,.77,0,0,0,.09,0,.13S146.39,156.93,146.59,156.91Zm-24.7-13.41a15.81,15.81,0,0,1-1.49,2A3.82,3.82,0,0,0,121.89,143.5Zm21.23-8.78a3.22,3.22,0,0,0-1.5,1.14C142.45,135.86,142.56,135,143.12,134.72Zm-24,12.8a2.3,2.3,0,0,0-.7.92c0,.09.14.24.2.17a7,7,0,0,0,.8-.93C119.51,147.56,119.33,147.53,119.12,147.52Zm23.44,11.17a2.18,2.18,0,0,0,1.62-1.59C143.86,157.86,143.05,158.1,142.56,158.69Zm-21.14,2.15c-.61.47-.63,1.22-1.08,1.7C120.84,162.1,121.42,161.72,121.42,160.84Zm2.29-19-.12-.16c-.33.26-.66.52-1,.8a.14.14,0,0,0,0,.23c.1.08.2,0,.31,0A3.84,3.84,0,0,0,123.71,141.81Zm-8.47,11.5a4.83,4.83,0,0,0-1.36,1.47C114.75,154.55,114.82,153.78,115.24,153.31Zm-24-22.7c.42.17.69.3,1,.38s.34.06.41-.14a.33.33,0,0,0,0-.24c-.08-.13-.26-.22-.35-.14C92,130.73,91.64,130.46,91.21,130.61Zm60.17,23.9c.67-.25.89-.89,1.2-1.45C152,153.39,151.87,154.1,151.38,154.51Zm-33.72,10.14c.55-.4,1.2-.69,1.51-1.34C118.7,163.79,118,164,117.66,164.65Zm4-3.06c.38-.5.48-1.11,1-1.35C121.74,160.51,121.74,160.51,121.65,161.59Zm21.68-5.16c-.18.62-.75.92-1.14,1.38C143.16,157.39,143.41,157.09,143.33,156.43ZM152.25,130c-.87,0-.79.94-1.33,1.19A2.28,2.28,0,0,0,152.25,130Zm-41,30.09c.5,0,.44-.63.86-.67.11,0,.24-.07.22-.21a.26.26,0,0,0-.15-.19c-.14-.06-.25,0-.34.13A3.35,3.35,0,0,0,111.27,160.11Zm37.1-5.83c-.94.65-1.22,1-1.25,1.4A4.51,4.51,0,0,0,148.37,154.28Zm-10.46,2.54c-.52.07-.8.44-1.17.66-.13.08-.09.19,0,.29s.1.07.15.1C137,157.32,137.78,157.45,137.91,156.82ZM144,156c.37-.62,1.31-.57,1.52-1.38C145.09,155.16,144.11,155.07,144,156Zm-8.36,2.42a2.8,2.8,0,0,0-1.06,1.1A2.07,2.07,0,0,0,135.61,158.37Zm-9.47,1.79c.33-.43.89-.57,1.23-1A1.31,1.31,0,0,0,126.14,160.16Zm27.77-18.37a5.55,5.55,0,0,0-1.43,1.25l.16.16Zm5.67-9.13.12.1c.24-.19.48-.4.73-.58s.22-.17.1-.31-.27,0-.34.06C160,132.16,159.78,132.41,159.58,132.66Zm8.41-5.37a3.86,3.86,0,0,0-1.33,1.13l.17.17Zm-48.55,34.38c.2-.47,1-.3,1-1C120.18,161.15,119.45,160.94,119.44,161.67Zm29.21-10.79a1.71,1.71,0,0,0,1.34-1.1C149.65,150.17,149.13,150.36,148.65,150.88ZM117,153.1l-.12-.12c-.41.42-1,.63-1.25,1.26Zm26.64,4.32c-.52,0-.81.38-1.18.61-.09.05-.16.1-.1.21s.13.1.21,0Zm13.71-18.36c-.48.16-.73.55-1.1,1.05C156.89,139.9,157.08,139.44,157.35,139.06ZM108.76,164.9l-.14-.1c-.2.31-.52.55-.53,1Zm59.05-36.7s0,0,0,0h0l0,.07Z"/><path class="cls-1" d="M135.9,27.13c-.57,1.54-1.14,3.07-1.71,4.62-.45,1.23-.44,1.24-1.74,1.14-1.74-.15-1.47,0-1.8-1.59s-.68-3.22-1.15-4.84c-.07.75-.16,1.5-.2,2.26-.11,1.7-.37,3.38-.56,5.07-.05.43-.25.65-.71.63-.84,0-1.69,0-2.53,0s-1-.27-.94-1.06c.22-2.05.47-4.11.68-6.16.27-2.74.51-5.47.78-8.21.11-1.24.26-2.48.37-3.72a.6.6,0,0,1,.73-.61l3.66.31a.6.6,0,0,1,.59.54c.53,2.34,1,4.69,1.45,7.06.05.29.1.57.18,1a6.31,6.31,0,0,0,.65-1.53c.71-1.92,1.41-3.83,2.07-5.76.24-.69.59-1,1.39-.92,1.19.17,2.39.26,3.59.38.51.05.66.34.58.8-.62,3.28-.71,6.63-1.08,9.94-.29,2.66-.55,5.33-.81,8a.77.77,0,0,1-.9.8l-2.58-.13c-.53,0-.55-.41-.52-.78.08-1.2.19-2.4.29-3.6s.19-2.38.29-3.57Zm-9.9,6.2c0,.11,0,.21.16.23a1.33,1.33,0,0,0,1.56-.72c0,.39-.33.46-.3.74.22.05.4,0,.49-.21a.53.53,0,0,0,0-.2c0-.77.38-1.52.07-2.29a1.16,1.16,0,0,0,.29-.73,25,25,0,0,1,.17-2.74c.08-.6-.11-.53-.48-.34.81-.37.56-1.16.7-1.79,0-.09-.11-.11-.19,0a2.57,2.57,0,0,0,.34-1.19c.08-.6-.14-1.43.85-1.55-.13.25.13.4.17.61.22,1.27.51,2.53.75,3.79.05.22.07.35.32.23-.4.85.16,1.57.24,2.48l.87-.81a2.57,2.57,0,0,1-.61.7c-.12.11-.25.18-.22.38a12.85,12.85,0,0,1,.4,2s.08.11.12.12a5.33,5.33,0,0,0,1.37.09c.35-.06.19-.55.32-.83a4.29,4.29,0,0,0,.19-.5c.75-1.87,1.49-3.74,2.24-5.62a.71.71,0,0,0,.08-.18c.14-1.24.16-1.28,1.08-1.82-.16.31.09.6.07.93-.09,1.08-.2,2.17-.27,3.26-.14,2.1-.37,4.2-.58,6.3,0,.45.22.13.35.15,0,.23-.36.29-.31.57.45,0,.89,0,1.34,0,1,0,1,0,1.06-1s.15-2,.26-3.06c.21-2,.52-4.07.66-6.11.17-2.45.36-4.9.67-7.34.06-.42-.14-.44-.37-.42-.81.05-1.6-.18-2.41-.17s-1,.07-1.24,1a16.51,16.51,0,0,1-1,2.94,25.92,25.92,0,0,0-1.63,4.57c-.19.63-.4,1-1.06,1.1a8.52,8.52,0,0,0-.46-2.23l-.35.33-.34.29a2,2,0,0,1,.49-.6c.16-.18.13-1.37-.07-1.46s-.4.27-.63.36c-.05,0-.08,0-.1-.07a1,1,0,0,0,.41-1.58,32,32,0,0,0-1-4.94c-.11-.41-.36-.18-.57-.06-.36-.38-.84-.23-1.28-.28-1.32-.15-1.35-.16-1.54,1.1a6,6,0,0,0-.14,2.11,1.34,1.34,0,0,0-.16.37c-.24,2.37-.5,4.74-.66,7.11,0,.37-.36.78,0,1.15-.35.45-.05,1-.17,1.46L128,27a7.4,7.4,0,0,1-1.5,1.51,2,2,0,0,0-.79,1.76,3.4,3.4,0,0,1-.06.46c-.14.93-.25,1.86-.38,2.82C125.61,33.53,125.84,33.51,126,33.33Z"/><path class="cls-1" d="M67.41,29.09l.6,5.32c.11.9.22,1.8.34,2.7.06.44-.17.63-.55.71-.94.18-1.87.37-2.81.54-.72.13-.88,0-1-.74-.53-4-1.08-8.1-1.61-12.15-.25-2-.46-4-.71-5.95a.73.73,0,0,1,.7-.94c1.06-.18,2.11-.33,3.15-.58a.79.79,0,0,1,1,.5l3.6,6.72a.69.69,0,0,0,.21.28,16.47,16.47,0,0,0-.27-3.05c-.15-1.33-.32-2.65-.49-4-.08-.63.08-1,.81-1A25.13,25.13,0,0,0,73.24,17c.55-.11.82.08.87.63.22,2.49.43,5,.68,7.47.34,3.41.7,6.81,1,10.22l.06.75c0,.36-.14.52-.52.56-.85.1-1.71.22-2.56.39s-1.1-.26-1.4-.81l-2.86-5.27-1-1.88Zm0-6.88a3.85,3.85,0,0,0-.58-1.29c-.16-.3-.22-.7-.66-.77A1,1,0,0,0,65,19a13.54,13.54,0,0,1-2,.35c-.37,0-.51.18-.45.61.19,1.29.33,2.58.47,3.87,0,.18,0,.31.26.3-.36.75.11,1.45,0,2.21.32-.06.35-.31.5-.43s.32-.32.48-.48c-.24.33-.5.64-.72,1a.71.71,0,0,0,.17,1.05,2.73,2.73,0,0,0,0,1.95,9.12,9.12,0,0,0,.43,2.44,10.78,10.78,0,0,0,.24,2.47c0,.43-.18,1,.44,1.3-.52.39-.13.89-.14,1.33s.13.77.74.54A6.33,6.33,0,0,1,67,37.14c.41,0,.52-.2.47-.61-.3-2.4-.57-4.81-.87-7.35l-.78.76c.46-.58,1-1.15.68-2a7.27,7.27,0,0,1-.13-1.55c0-.26,0-.48.31-.49s.42,0,.53.28a25.76,25.76,0,0,0,2,3.88c1,1.91,2,3.81,3,5.7.1.2.16.47.53.4.66-.13,1.34-.19,2-.27.24,0,.37-.11.3-.4a25.73,25.73,0,0,1-.26-3.16c-.3-2.57-.54-5.14-.79-7.71-.18-1.84-.39-3.68-.49-5.53,0-.68-.26-.41-.55-.24,0-.24.32-.33.39-.54s.17-.5-.16-.46c-.84.1-1.67.27-2.51.43-.21,0-.18.24-.15.39.06.33.26.07.39.08-.52.62-.13,1.24,0,1.86a30.88,30.88,0,0,0,.34,3.6c0,.31.25-.15.37,0-.58.78,0,1.6-.06,2.42l.92-.82a2.14,2.14,0,0,0-.88,2.54c-.29-.2-.62.13-.82-.25-.75-1.43-1.56-2.84-2.28-4.29-.24-.49-.42-.66-.88-.31C68.21,23,67.82,22.61,67.44,22.21Z"/><path class="cls-1" d="M156,29.22c-.24,1.48-.49,3-.73,4.45-.16,1-.32,2-.46,3-.07.5-.32.67-.79.58L151,36.72c-.44-.09-.52-.4-.46-.78.21-1.34.41-2.69.62-4Q152.28,25,153.34,18c.08-.5.23-.73.81-.59.94.23,1.91.37,2.87.54a.75.75,0,0,1,.67.65c.67,2.48,1.27,5,1.82,7.51a.8.8,0,0,0,.23-.6c.32-1.95.62-3.9.94-5.85.19-1.15.3-1.21,1.42-1,.8.16,1.61.29,2.41.46.46.09.69.31.58.87-1.15,5.63-2,11.31-2.89,17-.27,1.64,0,1.71-1.9,1.24-.53-.12-1.06-.23-1.6-.31a1,1,0,0,1-.87-.87c-.52-2.53-1.08-5.06-1.63-7.58a2.33,2.33,0,0,0-.11-.28Zm-.59-10.51c-.23-.45-.69-.38-1.05-.37s-.31.39-.27.61-.24.58-.09.94l.39-.27a2.29,2.29,0,0,0-.56,1.17c-.1,1.22-.36,2.42-.56,3.63-.16.94-.32,1.88-.49,2.9l.76-.38a5.4,5.4,0,0,0-.58.47c-.24.24-.47.51-.15.86-.47.51-.17,1.17-.31,1.76l.6-.49c-.26.49-.76.62-.83,1.09-.25,1.67-.49,3.34-.75,5,0,.14-.07.32.1.33.48,0,1,.3,1.43,0,0,.54.51.29.77.37s.22-.25.26-.42c.14-.72.13-.72-.34-.59a1.71,1.71,0,0,0,.54-.89,50.82,50.82,0,0,0,.95-6.24,3.87,3.87,0,0,1,1.66-2.84c-.69.92-.69.92-.12,2.22.4-.33.68-.81,1.21-1l-.89.83a2.64,2.64,0,0,0,.29,2.55s0,0,.06,0c-.21.19-.13.41-.07.63.21.86.41,1.74.64,2.6.06.25,0,.62.26.71s.36-.3.57-.42c0,0,.06,0,.18,0-.94.39-.74,1.09-.59,1.78,0,.16.07.31.1.46.18,1.28.18,1.28,1.43,1.5a2.85,2.85,0,0,1,.66.12c.58.24.74,0,.81-.54q.38-2.88.84-5.74c.24-1.5.49-3,.8-4.48.39-1.88.53-3.81,1-5.68.24-1,.24-1-.77-1.13l-.86-.14c-.91-.13-.92-.13-1,.75s-.2,1.6-.33,2.4c-.24,1.59-.47,3.18-.76,4.77-.1.56-.06,1.28-.61,1.58l-1.34.7a2.67,2.67,0,0,1,.85-.75.31.31,0,0,0,.1-.47c-.16-.19-.26.05-.37.13l-.67.46c.12-.32.44-.44.67-.65s.32-.17.24-.42c-.19-.63-.37-1.28-.57-2l-.66.41c.78-.54.57-1.24.34-2a1.92,1.92,0,0,1-.11-.46c-.05-.49-.29-.43-.59-.23.29-.17.57-.44.35-.73s-.38.21-.62.23c-.07,0-.14.1-.22.15.1-.13.17-.3.3-.36.49-.26.45-.64.33-1.08-.24-.9-.45-1.79-.68-2.69A1.13,1.13,0,0,0,155.37,18.71Z"/><path class="cls-1" d="M143.9,111.48a7.55,7.55,0,0,1-2.39,5.67,6.23,6.23,0,0,0-1.68,3.47.3.3,0,0,0,.09.3,1.32,1.32,0,0,1,.14,1.69.64.64,0,0,0,0,.57,1.53,1.53,0,0,1-.75,1.92,1.39,1.39,0,0,0-.65.72,2.55,2.55,0,0,1-3.61,1,1.36,1.36,0,0,1-.7-.81,1.35,1.35,0,0,0-.79-1,1.12,1.12,0,0,1-.57-1c0-.32.15-.75.05-.93-.55-1,.05-2.08-.24-3.13a6.07,6.07,0,0,0-1.64-2.83,7.53,7.53,0,0,1,2.31-12.15,7.44,7.44,0,0,1,9.16,2.44A7.63,7.63,0,0,1,143.9,111.48ZM136.21,124c-.18.14-.42.3-.2.52s.38.06.53-.14a3.32,3.32,0,0,1,1-.79c-.05.49-.64.52-.86,1,.7-.37,1.51.39,2-.49.19.12-.36.35.13.34s.43-.29.51-.55.11-.4-.08-.5a.61.61,0,0,0-.7.07c-.17.14-.27.37-.53.39-.05-.25.34-.23.28-.48-.3-.11-.52.05-.75.22-.19-.26-.38-.36-.62,0a1.31,1.31,0,0,1-.57.44.84.84,0,0,0,.33-.5c-.43-.1-.84-.17-1.14.25.09-.51-.19-.26-.39-.2-.33-.43-.82-.13-1.22-.23-.13,0-.21.27-.21.45a.63.63,0,0,0,.41.58c.21.11.25-.12.36-.22s.17-.2.26-.3c-.07.21-.23.38-.2.62.48.11.38-.58.79-.56l-.31.59C135.58,124.71,135.81,124.14,136.21,124Zm1.38-6.34h0c0,.8,0,1.59,0,2.39,0,.38,0,.78.57.72s1,0,1-.72a5.36,5.36,0,0,1,1.72-3.52,6.46,6.46,0,0,0,1.82-2.92,6.25,6.25,0,0,0-1.36-6.35,6.43,6.43,0,0,0-7-1.8,6,6,0,0,0-4.52,5.46,6.41,6.41,0,0,0,1.68,5.46,6.67,6.67,0,0,1,1.83,3.27c.23,1,.26,1,1.28,1,.45,0,.59-.13.58-.58,0-1.52,0-3,0-4.56,0-.28-.16-.31-.34-.4a3.52,3.52,0,0,1-1.43-1.13,1.19,1.19,0,1,1,1.95-1.23,2.89,2.89,0,0,1,.45,1.48c0,.4.21.38.48.36s.57-.23.56-.67a2,2,0,0,1,.7-1.76,1,1,0,0,1,1.2-.12,1,1,0,0,1,.5,1.1,1.65,1.65,0,0,1-.9,1.38c-1,.37-.89,1.13-.87,1.9C137.6,116.82,137.59,117.23,137.59,117.64Zm-2.88,3.8c-.5,0-.94,0-1,.44s.41.51.74.63a1.59,1.59,0,0,0,.33.08,30.2,30.2,0,0,0,3.43,0,1.26,1.26,0,0,0,1.14-.47c.14-.22.33-.43.16-.67a.48.48,0,0,0-.63-.1,1.19,1.19,0,0,1-.76.1C136.94,121.43,135.75,121.61,134.71,121.44Zm1.25-3.53h0c0,.77,0,1.54,0,2.32,0,.35.1.48.48.45s.51-.07.5-.48a40.64,40.64,0,0,1-.08-4.55c0-.21.13-.53-.28-.42-.25.07-.68-.14-.65.43C136,116.41,136,117.16,136,117.91Zm1.9,7.53c-.27-.06-.51-.13-.75-.16s-.38.14-.57.27c-.36.25.18-.54-.25-.28s-.6,0-.89,0-.3,0-.36.13.05.26.13.36A1.62,1.62,0,0,0,137.86,125.44Zm-2.66-11a3.52,3.52,0,0,0-.33-1.46c-.17-.29-.39-.56-.75-.35s-.26.55-.1.84A2.07,2.07,0,0,0,135.2,114.44Zm2.47-.22a1.85,1.85,0,0,0,.89-.72c.19-.33.25-.7-.13-.86s-.57.15-.7.47A1.8,1.8,0,0,0,137.67,114.22Z"/><path class="cls-1" d="M113.73,25.08q-.14,3.3-.25,6.6a.81.81,0,0,1-.25.68c-1.8,1.44-3.8,2.4-6.16,2a5.82,5.82,0,0,1-4.68-4.51,19.84,19.84,0,0,1-.34-8.84,10.15,10.15,0,0,1,2-5c1.85-2.19,6-2.67,8-.37a7.12,7.12,0,0,1,1.57,4.75c0,.37-.31.52-.59.55-1,.11-2.08.17-3.12.27-.4,0-.51-.17-.53-.52a8.43,8.43,0,0,0-.11-1,1.1,1.1,0,0,0-1-1.08,1.11,1.11,0,0,0-1.29.94,14.08,14.08,0,0,0-.56,3.28,17.62,17.62,0,0,0,.38,5.79,1.75,1.75,0,0,0,1.36,1.28,1.08,1.08,0,0,0,1.37-.69,4,4,0,0,0,.11-1.95c0-.35-.29-.27-.51-.28-1.47,0-1.47,0-1.47-1.53,0-.5,0-1,0-1.5a.59.59,0,0,1,.65-.69c1.55-.06,3.08-.24,4.61-.41.51-.05.71.22.72.68s0,1.09,0,1.64Zm-2.14-6.64a1.59,1.59,0,0,1,.5-.7c.21-.18.25-.36,0-.53,0-.56-.28-.4-.66-.19.69-.4.24-.64,0-.91-.77-.89-1.48-1.12-2.23-.7.23-.34.23-.38,0-.39a5.57,5.57,0,0,0-3.57.7c-1.79,1.26-2.3,3.19-2.68,5.18,0,.15-.31.41,0,.56a1.69,1.69,0,0,0-.19,1.53,4.22,4.22,0,0,0-.18,2c0,.22.22.19.34.27h0c-.43.2-.44.25-.18.58-.11.2-.29.39-.06.64l.6-.41a1.54,1.54,0,0,0-.57,1.65c.16.56.09,1.21.55,1.68-.14,1.24,1.74,3.7,3.11,3.93.45.08.94.46,1.42,0,.51.43,1,.17,1.47-.06-.14.27.06.24.2.19a11.6,11.6,0,0,0,2.38-1.08,1.89,1.89,0,0,0,.71-2.45c.29-.43,0-.9.09-1.34,0-.07-.13-.06-.21,0a.82.82,0,0,0,.26-.54c0-1.36,0-2.72,0-4.08,0-.23-.14-.3-.28-.29-.59.07-1.22-.09-1.72.37-.24-.58-.61-.05-.9-.07-1.37-.11-1.51.95-1.1,1.86-.13.18-.22.34.13.32a8.6,8.6,0,0,0,1-.05c.56-.1.67.23.66.66,0,.13-.07.26,0,.42l.43-.28c-.55.36-.52.86-.48,1.41a4,4,0,0,1-.16,1.13,1.73,1.73,0,0,1-1.82,1.33,2.85,2.85,0,0,1-2.75-2.42c-.06-.41.2-1-.35-1.29.27-.95-.13-1.88,0-2.93-.7.49-1,1.19-1.73,1.47.51-.5,1-1,1.53-1.5.24-.24.32-.47,0-.73a9.52,9.52,0,0,0,.52-2.94c0-.25-.2-.07-.31,0a1.36,1.36,0,0,0,.6-1c0-.89,1.11-1.71,1.88-1.88s1.46.31,1.94,1.24a.29.29,0,0,0,.3.2c-.24.38-.23.43.11.56-.13.21-.32.48,0,.64a.75.75,0,0,0,.89-.1c.23-.21.44-.47.78-.84-.17.5-.56.59-.64,1l.81-.11c.19,0,.43.07.53-.19,0-.07,0-.22,0-.24-.2-.1-.28.27-.52.16.27-.3.62-.52.45-1a6.1,6.1,0,0,0-.34-1Z"/><path class="cls-1" d="M80.8,25.5a12.63,12.63,0,0,0,.42,3.85A3.24,3.24,0,0,0,82.05,31a1.8,1.8,0,0,0,1.77.41c.55-.26.56-.78.55-1.29,0-.14,0-.27,0-.41,0-1.22,0-1.24-1.12-1.13-.55.05-.79-.13-.86-.69-.11-.78-.06-1.58-.2-2.37-.11-.61.39-.82.9-.88,1.44-.15,2.89-.27,4.34-.4.44,0,.67.17.7.63q.21,4,.46,8A1.44,1.44,0,0,1,88,34.12,8.43,8.43,0,0,1,83.52,36a5.88,5.88,0,0,1-6.31-4.18,18.46,18.46,0,0,1-.08-12.36,5.87,5.87,0,0,1,5.53-3.93,4.64,4.64,0,0,1,4.68,3.7,9.75,9.75,0,0,1,.32,2.22c0,.49-.21.72-.67.76l-2.78.26c-.39,0-.67,0-.7-.51a5.2,5.2,0,0,0-.11-.67,1.28,1.28,0,0,0-1.06-1.17,1.22,1.22,0,0,0-1.14,1.08,16.87,16.87,0,0,0-.4,3.17C80.79,24.73,80.8,25,80.8,25.5ZM80.07,29c.13-.27.22-.53-.09-.75.07-.16.2-.33,0-.5s-.25.19-.44.1c.15-.23.46-.3.43-.66-.06-.67-.06-1.35-.08-2h0a21.55,21.55,0,0,1,.41-4.08,2.22,2.22,0,0,1,2.05-1.84,1.8,1.8,0,0,1,1.81,1.53c.06.28-.18.68.19.81a2.1,2.1,0,0,0,.93,0,5.93,5.93,0,0,1,.59-.07c.58,0,1.07-.16.74-.95a7.55,7.55,0,0,1-.13-.85c-.4-1.59-1.42-3.16-3.52-3.19-.41,0-.82.21-1.15.21a3.92,3.92,0,0,0-3.31,1.86A9.88,9.88,0,0,0,77.17,23a20,20,0,0,0,.08,5.19,5.92,5.92,0,0,0,.51,2.27c.06.22-.16.57.3.59a.51.51,0,0,0,.17.75,4.1,4.1,0,0,0,2.48,2.88c.35.17.83.53,1.21,0-.24.45.11.42.38.45a6.68,6.68,0,0,0,3-.47,5.27,5.27,0,0,0,2.13-1.27c.2-.22.37-.4.26-.77s.2-.89-.29-1.2c.45-.44.08-1,.18-1.47,0-.2,0-.32-.27-.27.38-.66,0-1.36.11-2,0-.12-.2-.13-.34-.09a2.39,2.39,0,0,0,.09-1.94s-.11,0-.17,0c.1-.14.29-.25.19-.49-.56.07-1.1.13-1.65.16-.35,0-.79-.15-1.1.21-.15-.41-.37-.12-.5,0s-.23.38-.46.43c0-.23.35-.27.28-.53-.74.07-.89.5-.5,1.38-.07.84-.06.85.75.77l1-.07a4.2,4.2,0,0,1,.25,1.65c0,.2,0,.32.25.21a1.07,1.07,0,0,0-.25.94c.17,1-.49,1.51-1.18,2a2.75,2.75,0,0,1-2.4-.47c-.33-.3-.62-.79-1.17.08.17-.48.56-.62.42-.86a7.26,7.26,0,0,0-.72-1.45C80.2,29.38,80.43,29.12,80.07,29Z"/><path class="cls-1" d="M169.33,167.69a6.44,6.44,0,0,1-2.16,5.29c-1.12,1-1.21,2.33-1.56,3.6,0,.16.09.25.18.35a1,1,0,0,1,0,1.53.63.63,0,0,0-.1.66,1.51,1.51,0,0,1-.87,1.86.93.93,0,0,0-.45.47,2.29,2.29,0,0,1-2.46,1.31,2,2,0,0,1-2-1.48c-.08-.31-.32-.29-.49-.39-.8-.48-1-.89-.62-1.75a.52.52,0,0,0-.11-.65,1,1,0,0,1-.19-1.31c.69-.83.25-1.62.06-2.42a4.39,4.39,0,0,0-1.08-1.86,7.27,7.27,0,0,1-.27-9,7,7,0,0,1,7.67-2.25,6.33,6.33,0,0,1,4.44,5.84C169.32,167.55,169.32,167.62,169.33,167.69Zm-7.26,13.77c-.07.17-.19.39.05.46a.94.94,0,0,0,.84-.15c.14-.13,0-.37-.12-.48-.29-.33-.49.09-.74.15.11-.16.15-.31-.11-.3a2.75,2.75,0,0,0-1.24.07C161.15,181.81,161.43,181.86,162.07,181.46Zm.4-1.52c-.19.2-.22.31.12.38s.89-.27,1.39-.19c.22,0,.38-.71.22-.69-.51.06-1.11-.36-1.54.23,0-.45-.18-.27-.3,0s-.3.26-.45,0c.06,0,.15,0,.17-.06s-.05-.17-.16-.17a4.8,4.8,0,0,1-1.85-.07c-.28-.12-.52-.16-.61.22s.06.55.43.69c.77.28,1.13-.32,1.62-.66-.28.14-.31.44-.53.72C161.57,180.27,162.1,180.45,162.47,179.94Zm.95-5.6h.13v2.18c0,.17-.07.37.18.46a1,1,0,0,0,1.21-.76,6.25,6.25,0,0,1,1.94-4.08,4.47,4.47,0,0,0,.44-.52,5.88,5.88,0,0,0-1.4-8.56,6.33,6.33,0,0,0-8.37,1.65,6.65,6.65,0,0,0,.52,7.69,5.75,5.75,0,0,1,1.4,3.11,5.15,5.15,0,0,0,.2.93c.2.64.77.49,1.2.47s.24-.45.25-.7a32.26,32.26,0,0,1,.1-3.81c.06-.5-.11-.7-.58-.85a1.72,1.72,0,0,1-1.16-2.22,1.13,1.13,0,0,1,1-.88,1.06,1.06,0,0,1,1.11.63,2.93,2.93,0,0,1,.33,1.51c0,.28-.11.59.39.59s.53-.23.53-.59a1.91,1.91,0,0,1,.72-1.68,1,1,0,0,1,1.61.88c-.13.86-.39,1.66-1.37,1.91-.31.07-.39.23-.38.53C163.43,172.93,163.42,173.63,163.42,174.34Zm-.54,4.26a4.42,4.42,0,0,0,1.54,0,.75.75,0,0,0,.77-.85c-.07-.4-.52,0-.8-.08l-.06,0a15.44,15.44,0,0,1-4.55-.21c-.16,0-.38-.42-.44-.05s-.29.84.26.87,1.18.65,1.87.22a3.78,3.78,0,0,0,.45-.15C162.1,179,162.58,178.43,162.88,178.6Zm0-4.21h-.13c0-.68,0-1.36,0-2,0-.22.14-.52-.31-.52s-.58.1-.58.53c0,1.38,0,2.77-.09,4.16,0,.38.14.48.47.42s.67.11.64-.44S162.88,175.1,162.88,174.39Zm-1.63-3.86a2.28,2.28,0,0,0,0-.38c-.07-.43-.18-.86-.66-1-.24-.07-.37.14-.44.33a1.1,1.1,0,0,0,.29,1.24,1.76,1.76,0,0,0,.23.14C161.05,171.05,161.37,171.13,161.25,170.53Zm3.28-.65c0-.24.08-.46-.11-.56s-.34.08-.46.19a1.7,1.7,0,0,0-.5,1.48c0,.14.18.1.28,0A1.32,1.32,0,0,0,164.53,169.88Z"/><path class="cls-1" d="M60.58,22.53c0,.81-.34,1-.8,1.07-1.05.19-2.09.4-3.15.56-.48.08-.64.29-.54.78a14.32,14.32,0,0,1,.34,1.94c0,.42.17.49.55.41.87-.2,1.74-.33,2.61-.52.5-.1.77.05.85.57.17,1,.36,1.92.54,2.88.1.53-.16.8-.67.89-1,.17-1.92.37-2.88.52-.38.05-.42.24-.37.55.13.81.3,1.61.35,2.43,0,.51.27.55.65.47,1.1-.21,2.2-.39,3.28-.65.66-.17.89,0,1,.68.11.88.3,1.74.45,2.61s0,.91-.77,1.07l-7.13,1.48c-1,.21-1.21,0-1.36-1-.42-2.85-.86-5.69-1.29-8.54s-.87-5.88-1.29-8.83c-.15-1.05,0-1.19,1-1.4,2.38-.46,4.76-.92,7.13-1.44.62-.13.86,0,.95.64C60.2,20.72,60.43,21.75,60.58,22.53ZM54.23,36.29c-.46.44-.17,1-.07,1.4,0,.19-.3.7.3.66a1,1,0,0,0-.14.23c-.18.65,0,.89.68.76l1.9-.4c1.56-.33,3.11-.65,4.67-1,.25,0,.42-.14.36-.45-.15-.75-.29-1.49-.42-2.19-1.7.19-3.3.87-5,.6.3-.63,0-1.23-.12-1.83l-.12,0a.81.81,0,0,0,0-1c.25-.42,0-.84,0-1.25-.09-.78,0-1,.82-1.1.35,0,.68,0,.87-.38,0,.12,0,.27.09.25.59-.1,1.17-.23,1.75-.37.15,0,.39-.11.33-.35-.14-.57,0-1.21-.42-1.71.13-.5.12-.55-.13-.53a6.23,6.23,0,0,0-2.32.53c-.23-.29-.5-.05-.76-.05s-.69,0-.76-.39c-.21-1.28-.37-2.57-.55-3.86,0-.28.1-.49.35-.5,1.17,0,2.27-.46,3.43-.53.78,0,.85-.19.71-.95-.1-.55-.17-1.1-.27-1.65,0-.17,0-.49-.33-.39-.63.19-1.37.07-1.89.59.07-.24-.12-.2-.23-.18-.68.15-1.35.35-2,.45a1.61,1.61,0,0,0-1.15.71s-.07,0-.1,0c0-.21.3-.26.22-.5-.28-.1-.42.12-.6.24-.27-.33-.52.08-.8,0s-.66-.09-.67.23-.13.89.36,1.14c-.32.27-.15.63,0,.87s-.17.82.39,1c-.41.51,0,1,.07,1.48a22,22,0,0,0,.35,3.44c.07.47.42.88.2,1.36.26.14.26-.28.49-.15-.5.51-.5.51-.2,1.48l.63-.5c-.12.4-.73.49-.63,1a10.64,10.64,0,0,0,.3,1.82c.15.39-.14.9.34,1.17C53.81,36.23,53.84,36.29,54.23,36.29Z"/><path class="cls-1" d="M121.51,18.54a5.71,5.71,0,0,1-.93,0c-.62-.1-.88.13-.88.76s-.16,1.39-.14,2.1c0,.35.1.48.46.49.77,0,1.54.11,2.31.11.57,0,.85.19.8.8-.07.93-.11,1.86-.18,2.79,0,.56-.33.77-.91.72-.73-.07-1.46-.05-2.18-.09-.32,0-.45.11-.47.42-.06.88-.13,1.77-.21,2.65,0,.32.12.34.39.37a32.24,32.24,0,0,0,3.54.15c.51,0,.78.22.69.75a15.08,15.08,0,0,0-.26,2.84c0,.64-.32.87-.89.84-2.45-.11-4.9-.27-7.36-.2-.61,0-.79-.27-.74-.84.27-3.51.45-7,.59-10.54.1-2.59.29-5.17.23-7.76a.59.59,0,0,1,.68-.66l7.47.25c.74,0,.92.23.82,1s-.18,1.57-.25,2.36-.31.93-1,.87Zm-.07-1a6.15,6.15,0,0,1,1.79-1.73c.2-.13.4-.4.12-.45s-.85-.25-1.18.22a2,2,0,0,1-.77.63l.91-.67-.18-.21c-.57,0-1.2-.2-1.63.42.1-.12.28-.21.24-.39s-.3-.08-.46-.1c-1.07-.15-2.15,0-3.22-.08a.82.82,0,0,0-.83.83,19.1,19.1,0,0,0,0,3.38l.67-.5c-.43.49-1,1-.8,1.71.09.44-.35.92.1,1.33a.79.79,0,0,0-.14.8l.69-.62c-.08.49-.72.59-.78,1.07s-.1,1.23-.13,1.85c-.07,1.68-.13,3.35-.23,5,0,.29-.21.57.14.78-.58.64-.15,1.43-.32,2.14,0,0,.05.11.09.17.34-.19.74.25,1.07-.11,0,0,.07.14.11.14,1.06.05,2.13,0,3.19.14a.54.54,0,0,0,.47-.21c.14.54.59.2.85.23,1.4.2,1.57.08,1.56-1.26,0-.27.38-.72-.14-.94.09-.15.31-.36.15-.46-.39-.23-.55.26-.87.38,0-.18.37-.26.13-.42a.48.48,0,0,0-.57.1c-.29.3-.57.61-1,1,.07-.4.29-.48.39-.64s.36-.21.37-.53a4.58,4.58,0,0,0-1,0c-.34.09-.54.48-.93.6.14-.31.55-.32.61-.7a.87.87,0,0,0-.89.29c.17-.18.15-.32-.12-.35-.52-.06-.54-.39-.55-.83,0-1.25.21-2.49.15-3.74,0-.32.12-.61.63-.55.8.1,1.61.05,2.42.1.45,0,.61-.14.6-.58s0-.94,0-1.42-.07-.62-.57-.59a17.78,17.78,0,0,1-2.06-.06c-.9,0-.95-.1-.92-1,0-.38,0-.76.08-1.15s0-.37-.27-.18a1,1,0,0,0,.3-.86l-.19-.15-2.28,2.44a14.32,14.32,0,0,1,2.13-2.27,1.44,1.44,0,0,0,.48-1c0-.47.13-.95.81-.93.15,0,.31-.15.47-.23a.17.17,0,0,0-.1.21c.42-.14.88.22,1.29-.08,1.06.47,1.88.16,2-.76a8.25,8.25,0,0,0,0-1C122.56,16.23,122.12,17,121.44,17.52Z"/><path class="cls-1" d="M145.73,31c-.1.3.15.43.64.48,1,.11,1.92.35,2.9.41.55,0,.86.19.68.91a23.17,23.17,0,0,0-.45,2.89c-.07.5-.28.83-.83.76-2.44-.3-4.87-.62-7.31-.89-.53-.06-.65-.29-.59-.75.29-2.16.57-4.32.87-6.48q.65-4.83,1.31-9.65c.09-.7.19-1.4.3-2.09.06-.42.26-.66.74-.58,2.26.37,4.51.73,6.78,1.07.58.09.85.36.78,1-.1.85-.18,1.71-.3,2.56-.06.46-.27.72-.84.61-1-.19-2-.28-2.95-.45-.41-.06-.55,0-.58.47a20.83,20.83,0,0,1-.29,2.36c-.06.39.07.46.42.48.83.06,1.67.19,2.5.24.56,0,.72.3.66.79-.14,1-.27,2-.42,3-.07.42-.36.54-.75.49-.81-.11-1.62-.21-2.43-.34-.26,0-.43-.07-.48.27C146,29.23,145.88,30,145.73,31Zm3.35-11.16c.18.52.67.26,1,.38s.43-.11.46-.35a8.9,8.9,0,0,0,.09-1.26c0-.44-.2-.2-.34-.05l.41-.62a5.58,5.58,0,0,0-1.41-.28c-.36,0-.8-.35-1.12.13.06-.26-.1-.3-.3-.32-.65-.07-1.31-.17-2-.23-.31,0-.63-.31-.93,0,0-.15,0-.29-.17-.28a1.09,1.09,0,0,0-.81,1.25l.5-.43c-1.38,1.68-.85,3.77-1.38,5.81l2.09-1.85c-.59.61-1.16,1.25-1.79,1.82-.47.43-.27,1-.45,1.52,0,.11.14.11.23,0-.14,0-.18.12-.21.23a26.5,26.5,0,0,0-.61,3.86c-.05.44.26-.09.35.08-.18.22-.43.4-.46.72-.17,1.4-.42,2.8-.57,4.2-.06.51.05.57.44.59,2.05.1,4.08.41,6.11.67.28,0,.42,0,.46-.33.09-.67.21-1.34.29-2,0-.31-.06-.47-.44-.5-1.05-.1-2.09-.26-3.14-.39a.54.54,0,0,1-.55-.63c.13-1.3.28-2.61.53-3.9a.75.75,0,0,1,.84-.6,6,6,0,0,0,2.27.51c.23.05.43.06.47-.29.07-.62.21-1.23.3-1.85,0-.27,0-.43-.39-.45-.91,0-1.81-.14-2.71-.25-.33,0-.52-.15-.52-.61s.34-.81,0-1.21a2.66,2.66,0,0,0,.15-1.8c.34-.33.3-.82.54-1.2a2.88,2.88,0,0,1,1.43-.05C148.21,20,148.67,20.14,149.08,19.82Z"/><path class="cls-1" d="M155.67,95.48a10.37,10.37,0,0,1-10.4-10c-.06-7.41,5.2-11,10.33-11.26a10.7,10.7,0,0,1,11,10.65A10.5,10.5,0,0,1,155.67,95.48Zm-7-4.21c.77,1.22.83,1.24,1.71.51,0,0,.08,0,.11.06l-.28.25c-.41.3-.47.49,0,.82a14.22,14.22,0,0,0,1.62.9c.32.17.58.24.83-.2.06.25-.24.42.06.54a3.82,3.82,0,0,0,1.23.3c.38,0,.41-.51.78-.57-.06.25-.39.3-.4.61a11,11,0,0,0,1.8.14,10.17,10.17,0,0,0,1.86-.31,9,9,0,0,0,7.46-6.88,9.82,9.82,0,0,0-1.35-7.94,6.15,6.15,0,0,0-1.76-1.94c-.08-.26-.31-.38-.5-.53a9.32,9.32,0,0,0-7.05-2,9.56,9.56,0,0,0-7.9,6,7.68,7.68,0,0,0-.65,1.85,10.67,10.67,0,0,0,.79,6.05A5.13,5.13,0,0,0,148.63,91.27Z"/><path class="cls-1" d="M89.32,34.25c.28-1.47.58-2.93.84-4.4.73-4.11,1.48-8.21,2.36-12.29.14-.64.24-1.29.35-1.94a.8.8,0,0,1,.88-.74c1,0,2-.11,3-.24a.83.83,0,0,1,1.06.75c.59,2.52,1.19,5,1.78,7.55.8,3.46,1.58,6.93,2.38,10.4.14.65,0,.87-.69.93l-3,.26A.61.61,0,0,1,97.6,34c-.12-.81-.28-1.61-.39-2.42,0-.32-.17-.41-.48-.4-.71,0-1.41,0-2.12,0-.33,0-.42.1-.45.41-.08.82-.2,1.63-.27,2.44,0,.6-.3.89-.94.89-1,0-2,.07-2.93.11C89.51,35,89.22,34.83,89.32,34.25Zm8.68-4a.22.22,0,0,0-.1.33c.13.19.21,0,.3-.07l.33-.32a1.8,1.8,0,0,0-.44,1.73,6.14,6.14,0,0,1,.2,1.2c0,.42.18.57.64.49a12.63,12.63,0,0,1,1.74-.14c.31,0,.4-.09.33-.4-.2-.91-.38-1.84-.58-2.82l-1,.81a3.39,3.39,0,0,1,.63-.72A.92.92,0,0,0,99.93,29c.11-.27.34-.6-.24-.6.37-.39.12-.72-.1-1.06,0-.07,0-.14,0-.2-.08-.55,0-1.15-.53-1.55.39-.64-.17-1.18-.21-1.78a22.64,22.64,0,0,0-.6-2.53c-.07-.42,0-.95-.41-1.29.1-.22.2-.44-.15-.53a.58.58,0,0,0,.09-.45c-.25-.95-.54-1.91-.72-2.88-.08-.46-.28-.54-.66-.52-.77,0-1.54.12-2.3.13-.37,0-.46.22-.51.51-.11.64-.2,1.29-.37,1.92s-.29,1.45-.45,2.32L94,19.33a5.88,5.88,0,0,1-1,1.07c-.14.12-.3.21-.33.41-.28,1.46-.57,2.93-.83,4.4-.17.92-.27,1.85-.45,2.77-.38,1.93-.78,3.85-1.18,5.77-.07.31,0,.41.32.39L92.7,34c.25,0,.26-.19.28-.38A23.27,23.27,0,0,1,93.42,31c.13-.64.48-.82,1.11-.81.82,0,1.71.32,2.47-.3-.12.1-.28.16-.25.41C97.17,30.05,97.58,30.43,98,30.24Z"/><path class="cls-1" d="M84.2,185.4c-4.92-.1-9.74-3.68-9.69-9.62a9.78,9.78,0,0,1,9.8-9.9,9.54,9.54,0,0,1,9.63,9.49A9.7,9.7,0,0,1,84.2,185.4Zm8.92-9.6a8.86,8.86,0,0,0-8.7-9.07c-4.72-.12-9,3.4-9,9.15-.05,4.51,3.38,8.36,8.59,8.7C88.71,184.88,92.7,181.44,93.12,175.8Z"/><path class="cls-1" d="M169.43,39.91,166,39.19c-.55-.11-.57-.49-.46-.95q1.18-5.13,2.35-10.27c.24-1,.48-2,.73-3,.1-.37.05-.58-.4-.63-.69-.06-1.39-.19-2.08-.29s-.86-.34-.71-1c.2-.95.41-1.91.64-2.86.09-.38.26-.63.76-.53,3,.61,6,1,9,1.71,1,.23,1,.25.84,1.26-.16.85-.36,1.69-.57,2.52-.13.5-.4.79-1,.61a6.28,6.28,0,0,0-1.07-.17c-1-.15-1-.15-1.17.83-.86,4.32-1.7,8.63-2.72,12.91C170,39.69,169.93,40,169.43,39.91Zm4-15.45a5.1,5.1,0,0,0,1.67.4c.22,0,.38-.05.37-.28,0-.54.31-1,.32-1.5,0-.12.18-.25,0-.35s-.28.05-.38.17l.52-.68c-.16-.16-.31-.1-.47-.08-.58-.41-1.3-.28-2-.42-2-.46-4.13-.79-6.19-1.2-.39-.07-.55,0-.61.39-.1.6-.21,1.2-.34,1.8-.07.34,0,.48.38.54.78.1,1.54.24,2.3.41.41.08.55.32.47.79-.43,2.42-1.08,4.78-1.6,7.18-.44,2.11-.91,4.22-1.44,6.3-.08.32-.07.49.29.56.72.13,1.45.29,2.18.44.33.06.48-.17.51-.42.1-.71.4-1.37.55-2.06.47-2.15.87-4.32,1.3-6.48.33-1.64.7-3.27,1-4.91.06-.32,0-.63.4-.74A.76.76,0,0,0,173.39,24.46Z"/><path class="cls-1" d="M128.74,71.59a11.19,11.19,0,0,0,4.55-2.87c.23-.24.42-.42.81-.31a13.05,13.05,0,0,0,7.55-.36,8.94,8.94,0,0,0,5.79-4.61c1.35-2.74.62-5.61-2.05-7.57A13.36,13.36,0,0,0,132.24,54,9.39,9.39,0,0,0,130,55.14c-.18.12-.41.35-.58.06s.13-.36.29-.47a12.05,12.05,0,0,1,4.37-1.8,13.69,13.69,0,0,1,12.07,2.85,6.17,6.17,0,0,1,2.49,5.42,7.81,7.81,0,0,1-3.24,5.62,13.54,13.54,0,0,1-6.27,2.43,13.13,13.13,0,0,1-4.8-.15.89.89,0,0,0-.93.32,10.36,10.36,0,0,1-5.15,2.89,1.29,1.29,0,0,1-.47.06c-.21,0-.52.18-.6-.12s.24-.32.41-.45a7,7,0,0,0,2.25-3.64.9.9,0,0,0-.47-1.08,7.19,7.19,0,0,1-3.48-6.6,6.57,6.57,0,0,1,2.43-4.57c.09-.08.23-.2.35-.1s.09.3,0,.43l-.82.92c-2.55,2.86-1.33,6.85.94,8.74a11.37,11.37,0,0,0,1.19.91,1,1,0,0,1,.49,1.27,6.75,6.75,0,0,1-.71,1.84C129.45,70.46,129.11,71,128.74,71.59Z"/><path class="cls-1" d="M166.7,64a5.77,5.77,0,0,1-3.87,2.2,5.5,5.5,0,0,1-5.32-2.25,2.76,2.76,0,0,1-.32-3.14,3,3,0,0,1,2.75-1.46,7.49,7.49,0,0,1,5.44,2.26,6.65,6.65,0,0,1,.91.93c.4.56.61.29.8-.13a6.51,6.51,0,0,0-1-7,14.67,14.67,0,0,0-6-4.24L159.7,51c-.15-.07-.29-.17-.21-.37s.22-.13.36-.11l.19.06a14.83,14.83,0,0,1,6.75,4.9,7.38,7.38,0,0,1,1.27,6,4.26,4.26,0,0,1-.76,1.66.58.58,0,0,0,0,.78,19.94,19.94,0,0,1,3.13,8.2,13.6,13.6,0,0,1,.08,4.41c0,.19-.05.39-.29.38s-.23-.23-.23-.4a29.64,29.64,0,0,0-.14-4.42A20.86,20.86,0,0,0,166.7,64Zm-5.21,1.62A5.76,5.76,0,0,0,166,64a.55.55,0,0,0,0-.9,9.15,9.15,0,0,0-3.12-2.47,5.46,5.46,0,0,0-4-.5,2,2,0,0,0-1.38,2.6A4.47,4.47,0,0,0,161.49,65.59Z"/><path class="cls-1" d="M57.89,79a9.65,9.65,0,0,1,3-1,3.89,3.89,0,0,1,4,1.68A3.39,3.39,0,0,1,63,84.4a4.17,4.17,0,0,1-5.76-3.86c0-.09,0-.18,0-.37a7.09,7.09,0,0,0-1.73,1.57,16.21,16.21,0,0,0-3.6,8.68A21.21,21.21,0,0,0,52,96.53c0,.2.21.5-.15.54s-.23-.27-.27-.46c-1-5.65-.12-10.83,3.6-15.36A5,5,0,0,1,56.49,80a1.86,1.86,0,0,0,.85-1.43,13.74,13.74,0,0,1,6.5-9.16,7.76,7.76,0,0,1,1.06-.47c.19-.08.44-.15.53.09s-.2.28-.35.34a9.16,9.16,0,0,0-3.61,2.49A13.55,13.55,0,0,0,57.8,78.7.26.26,0,0,0,57.89,79Zm3.32-.47a7.78,7.78,0,0,0-3.19,1,.63.63,0,0,0-.4.63c.06,2.11,1.49,4.43,4.27,4,2-.26,3.36-2.06,2.79-3.77C64.29,79.23,63.15,78.54,61.21,78.53Z"/><path class="cls-1" d="M69.4,47.1c.26,0,.24.26.26.41.1.68.14,1.36.26,2,.41,2.14,1.28,2.93,3.46,3.18.22,0,.49,0,.63.18s.24.57-.16.7a4.48,4.48,0,0,1-.73.14c-2.17.41-3,1.95-3.25,3.92-.05.34-.09.67-.14,1s-.1.52-.44.49-.35-.26-.35-.5a12.71,12.71,0,0,0-.27-1.95A3.22,3.22,0,0,0,66.09,54c-.37-.11-.74-.19-1.12-.29-.17,0-.37-.06-.4-.3s.18-.36.37-.43c.41-.13.83-.25,1.24-.35a3.16,3.16,0,0,0,2.64-3c.09-.72.25-1.43.38-2.14C69.22,47.33,69.2,47.16,69.4,47.1Zm-2.08,6.28a.14.14,0,0,0,0,.23A3.3,3.3,0,0,1,69,55.3c.15.3.11.69.45,1A3.83,3.83,0,0,1,72.3,53.2a3.35,3.35,0,0,1-2.87-2.63c-.41.84-.57,1.71-1.34,2.2-.59-.06-1,.33-1.65.56C66.83,53.44,67.06,53.62,67.32,53.38Z"/><path class="cls-1" d="M165.68,107.52a4.43,4.43,0,0,1,4.5,4.63,4.61,4.61,0,0,1-4.71,4.35,4.49,4.49,0,1,1,.21-9Zm3.77,4.57c.06-3.3-3.59-4.56-5.66-3.52a3.85,3.85,0,0,0-2,3.87,3.54,3.54,0,0,0,2.69,3.16c.6.18.59,0,.51-.48s-.15-1.25-.21-1.89c0-.23,0-.48.3-.51s.35.18.37.44c0,.78.15,1.56.19,2.35,0,.26.1.29.32.28C167.83,115.72,169.73,113.57,169.45,112.09Z"/><path class="cls-1" d="M123.62,49.05h1.45c.17,0,.33.05.35.24s-.13.29-.28.33c-1,.22-2,.44-3,.62-.34.06-.45-.26-.35-.5.4-1,.84-1.91,1.27-2.85a.34.34,0,0,1,.47-.16c.22.08.21.29.15.46-.13.38-.31.75-.48,1.15.27,0,.44-.17.63-.3a17.84,17.84,0,0,1,6.33-2.72c.22,0,.53-.26.61.13s-.29.35-.51.41a19.06,19.06,0,0,0-6.57,3S123.57,48.91,123.62,49.05Z"/><path class="cls-1" d="M136.7,83.26a.39.39,0,0,1-.34.37,2.62,2.62,0,0,0-2.07,2.82c0,.25-.07.55-.39.53s-.23-.34-.27-.54c-.09-.44-.11-.89-.23-1.34a1.7,1.7,0,0,0-1.53-1.42c-.25,0-.63-.06-.62-.41s.36-.3.59-.36a2.59,2.59,0,0,0,1.94-2.43c.06-.34,0-.88.39-.88s.14.55.16.84a2.38,2.38,0,0,0,1.92,2.47C136.46,83,136.64,83,136.7,83.26ZM134,84.88a4,4,0,0,1,.25-.51c.3-.43,1-.73,1-1.12s-.75-.66-1.09-1.07c0,0-.1-.06-.13-.09-.3.32-.55.64-.85.92s-.23.34,0,.55A1.73,1.73,0,0,1,134,84.88Z"/><path class="cls-1" d="M122.55,184.15a22.64,22.64,0,0,1-7.86-1.49c-.29-.12-.56-.29-.84-.44s-.34-.24-.23-.43.32-.06.48,0a17.89,17.89,0,0,0,4.65,1.42,23,23,0,0,0,8.91-.2,1.53,1.53,0,0,1,.26-.08c.21,0,.52-.18.59.13s-.27.3-.47.35A25.56,25.56,0,0,1,122.55,184.15Z"/><path class="cls-1" d="M108.91,181.78a3.17,3.17,0,0,0,2.72,3.19c.24,0,.59,0,.54.34s-.43.2-.63.17a3.75,3.75,0,0,1,.58-7.44,3.68,3.68,0,0,1,3.48,1.85.93.93,0,0,1,.13.31c0,.21.16.53-.07.61s-.28-.27-.35-.44a3.12,3.12,0,0,0-2.85-1.85,3.17,3.17,0,0,0-3.23,1.93A2.87,2.87,0,0,0,108.91,181.78Z"/><path class="cls-1" d="M79.53,59.18a1.12,1.12,0,0,1-.47.49,29.16,29.16,0,0,0-4.27,4.19c-.57.68-1,1.46-1.49,2.19-.12.18-.22.58-.5.4s0-.47.09-.7a16.29,16.29,0,0,1,2-2.88,24.55,24.55,0,0,1,4-3.73c.13-.09.26-.29.47-.15A1,1,0,0,1,79.53,59.18Z"/><path class="cls-1" d="M137.77,178.49a.58.58,0,0,1-.29.48,24.66,24.66,0,0,1-7.34,3.89c-.19.07-.47.24-.57-.1s.16-.32.36-.39a23.9,23.9,0,0,0,7.23-3.82c.14-.11.27-.27.47-.22S137.74,178.45,137.77,178.49Z"/><path class="cls-1" d="M87.86,55.35c-.29.06-.45,0-.46-.19s.18-.31.36-.35c.76-.19,1.53-.4,2.31-.54a23,23,0,0,1,4.14-.33c.12,0,.3,0,.33.13s-.11.29-.28.3A24.1,24.1,0,0,0,87.86,55.35Z"/><path class="cls-1" d="M151.23,104.19c0,.22-.15.3-.29.38-1.47.88-2.95,1.76-4.44,2.62-.18.11-.47.37-.64,0s.18-.37.36-.48q2.17-1.32,4.37-2.62C150.82,104,151.07,103.81,151.23,104.19Z"/><path class="cls-1" d="M126.63,108.57c-.08.37-.3.31-.56.2-.89-.39-1.79-.76-2.68-1.14l-2.17-.95c-.2-.09-.5-.13-.37-.45s.35-.15.52-.08l5,2.19A.37.37,0,0,1,126.63,108.57Z"/><path class="cls-1" d="M80.76,58.43a.25.25,0,0,1-.27-.13.22.22,0,0,1,.06-.3,7.89,7.89,0,0,1,.65-.49,21.73,21.73,0,0,1,4.43-2c.14-.05.34-.26.46,0s-.07.38-.28.47l-1.51.61a15.45,15.45,0,0,0-3.12,1.63Z"/><path class="cls-1" d="M136,98.25c0-1,0-2,0-3,0-.14-.05-.36.2-.34s.18.19.18.33c0,2,0,3.91,0,5.86,0,.2,0,.39-.29.37s-.17-.22-.17-.37c0-1,0-1.9,0-2.86Z"/><path class="cls-1" d="M144.84,99.08a3.29,3.29,0,0,1-.15.32c-.69,1.15-1.38,2.29-2.08,3.43a1.34,1.34,0,0,1-.31.36.28.28,0,0,1-.37,0c-.12-.1,0-.21,0-.3l2.38-4a.31.31,0,0,1,.39-.18C144.84,98.78,144.88,98.86,144.84,99.08Z"/><path class="cls-1" d="M138.87,177.74c-.09-.05-.2-.08-.23-.14-.12-.22.08-.33.2-.45l2.62-2.57c.22-.23.43-.47.66-.69s.24-.32.44-.13.05.34-.07.48c-.43.47-.85.94-1.3,1.39-.63.62-1.28,1.22-1.92,1.82A4.1,4.1,0,0,1,138.87,177.74Z"/><path class="cls-1" d="M125,121.42c-.18,0-.27-.07-.3-.19s.11-.32.26-.42l2.38-1.57.9-.62c.13-.1.27-.17.42,0s0,.29-.1.39c-1.09.82-2.2,1.61-3.36,2.33A1,1,0,0,1,125,121.42Z"/><path class="cls-1" d="M161.48,105.85a.19.19,0,0,1-.11.24c-.12.08-.22,0-.3-.08l-.92-.91-1.94-2c-.1-.1-.28-.22-.13-.4s.29-.09.41,0a32.62,32.62,0,0,1,2.89,3Z"/><path class="cls-1" d="M123.37,114.32h-1.22c-.16,0-.34,0-.36-.22s.14-.26.3-.27l3.53-.16c.16,0,.35,0,.35.21s-.16.29-.36.3l-2.24.16Z"/><path class="cls-1" d="M148.8,120.37c-.05.2-.17.26-.35.16l-3.19-1.91c-.11-.07-.23-.16-.15-.33s.25-.18.4-.1c.32.17.64.34,1,.53.69.43,1.37.87,2,1.31C148.64,120.11,148.8,120.18,148.8,120.37Z"/><path class="cls-1" d="M65.14,181.75a21.76,21.76,0,0,1-7.62-7.15A29.79,29.79,0,0,0,65.14,181.75Z"/><path class="cls-1" d="M162.75,157.51a10.7,10.7,0,0,1,.14-1.69c0-.19.05-.38.3-.37s.22.24.22.41c0,1-.07,1.91-.11,2.86,0,.19-.06.39-.3.36s-.26-.21-.26-.41C162.75,158.29,162.75,157.9,162.75,157.51Z"/><path class="cls-1" d="M165.76,104.37c0-.53.09-1.23.14-1.93,0-.25,0-.6.33-.58s.19.36.18.57c0,.91-.08,1.81-.14,2.72,0,.24,0,.58-.33.56s-.15-.36-.17-.56A6.1,6.1,0,0,1,165.76,104.37Z"/><path class="cls-1" d="M148.81,113.22h-1.43c-.19,0-.4,0-.41-.25s.19-.28.38-.28c1,0,2,0,3,0,.16,0,.35,0,.35.22s-.2.28-.39.28Z"/><path class="cls-1" d="M130.32,104c-.06.08-.1.17-.17.2a.26.26,0,0,1-.36-.08L128,101.64c-.11-.14-.06-.25.08-.33s.34,0,.44.18c.54.73,1.06,1.46,1.59,2.19C130.18,103.77,130.24,103.87,130.32,104Z"/><path class="cls-1" d="M170.84,106.69a.9.9,0,0,1-.2-.14c-.1-.11,0-.22.06-.3a24.28,24.28,0,0,1,2.11-2.31c.12-.12.27-.19.41,0a.22.22,0,0,1,0,.3L171,106.58A1.11,1.11,0,0,1,170.84,106.69Z"/><path class="cls-1" d="M170.78,158.9a1.89,1.89,0,0,1-.23.35c-.53.56-1.06,1.12-1.61,1.66-.13.13-.31.34-.51.13s0-.37.14-.52l1.8-1.76c.08-.08.16-.17.29-.13S170.78,158.75,170.78,158.9Z"/><path class="cls-1" d="M133.77,45.47h-1.36c-.18,0-.33-.08-.33-.27s.16-.25.34-.25a21.33,21.33,0,0,1,2.65.08c.18,0,.41,0,.39.28s-.24.15-.39.15h-1.3Z"/><path class="cls-1" d="M157.51,118.9a.48.48,0,0,1-.16-.08.16.16,0,0,1,0-.24l2.62-2s.18,0,.24,0,.07.21,0,.29a19.69,19.69,0,0,1-2.58,2S157.57,118.88,157.51,118.9Z"/><path class="cls-1" d="M171,171.72l2.5,1a.21.21,0,0,1,.14.27.25.25,0,0,1-.33.16q-1.26-.47-2.52-1a.21.21,0,0,1-.13-.27A.36.36,0,0,1,171,171.72Z"/><path class="cls-1" d="M109.84,43.76a22.88,22.88,0,0,0-6.94.9C103.89,44,108.47,43.37,109.84,43.76Z"/><path class="cls-1" d="M155.1,158.36a.34.34,0,0,1,.35.14l1.57,1.7c.11.12.2.27.08.42s-.28,0-.37-.09c-.56-.56-1.11-1.13-1.66-1.7-.09-.09-.2-.21-.12-.35A.35.35,0,0,1,155.1,158.36Z"/><path class="cls-1" d="M173.6,111.72h-1.22c-.13,0-.25,0-.26-.16a.22.22,0,0,1,.19-.25,7.1,7.1,0,0,1,2.68.06c.07,0,.14.13.15.2s-.14.16-.25.16H173.6Z"/><path class="cls-1" d="M151.73,172.68c-.22,0-.38,0-.43-.17s.11-.21.24-.26c.75-.3,1.5-.61,2.26-.9.15-.06.37-.15.45.1s-.16.25-.29.31Z"/><path class="cls-1" d="M150.9,164.55a17.62,17.62,0,0,1,2.78.88.19.19,0,0,1,.14.26.2.2,0,0,1-.27.12c-.9-.29-1.79-.59-2.69-.9-.1,0-.21-.11-.16-.25S150.8,164.51,150.9,164.55Z"/><path class="cls-1" d="M87.45,46.94a18.11,18.11,0,0,1,7.17-1.25A33.56,33.56,0,0,0,87.45,46.94Z"/><path class="cls-1" d="M145.11,171a1.26,1.26,0,0,1-.11.17c-.46.56-.91,1.12-1.38,1.67-.1.11-.24.25-.41.13s-.11-.27,0-.41a9.92,9.92,0,0,1,1.36-1.6c.12-.11.25-.2.42-.11A.67.67,0,0,1,145.11,171Z"/><path class="cls-1" d="M173.82,165.28c.27,0,.47-.08.51.16s-.1.25-.24.28c-.74.19-1.49.37-2.24.53-.15,0-.36.05-.39-.16s.16-.23.31-.27Z"/><path class="cls-1" d="M172.6,119.22a.19.19,0,0,1-.09.25c-.09,0-.17,0-.24-.07l-1.68-1.94c-.08-.09-.16-.24,0-.36a.26.26,0,0,1,.37,0c.54.63,1.07,1.28,1.6,1.92A.43.43,0,0,1,172.6,119.22Z"/><path class="cls-1" d="M64.56,178.57a20.1,20.1,0,0,1-4.78-4.21C61.33,175.82,62.9,177.24,64.56,178.57Z"/><path class="cls-1" d="M96.8,54.09a6.58,6.58,0,0,1,1.48.23c.15,0,.35.08.33.27s-.23.18-.4.15l-1.93-.24c-.22,0-.55,0-.51-.28s.36-.19.58-.17Z"/><path class="cls-1" d="M172.48,92.84A43.24,43.24,0,0,0,174,86.39,18.64,18.64,0,0,1,172.48,92.84Z"/><path class="cls-1" d="M158.06,111.3c-.54,0-1-.1-1.53-.12-.23,0-.46-.11-.43-.33s.33-.2.5-.16a11.33,11.33,0,0,0,1.42.12c.26,0,.72-.09.7.31S158.27,111.26,158.06,111.3Z"/><path class="cls-1" d="M141.18,185.56c1.73-.63,3.27-1.67,5-2.29-.82.43-1.63.86-2.46,1.28A12.2,12.2,0,0,1,141.18,185.56Z"/><path class="cls-1" d="M112.88,173.28a6,6,0,0,1,0,2.63c0,.08-.12.19-.17.18s-.17-.17-.17-.31a3.87,3.87,0,0,1,0-.48C112.64,174.66,112.76,174,112.88,173.28Z"/><path class="cls-1" d="M105.89,180.93a3.55,3.55,0,0,1-2.52-.45A4.82,4.82,0,0,1,105.89,180.93Z"/><path class="cls-1" d="M108.64,46c-1.43.23-2.9.33-4.33.62A15.37,15.37,0,0,1,108.64,46Z"/><path class="cls-1" d="M170.64,92.42l1-3A8.84,8.84,0,0,1,170.64,92.42Z"/><path class="cls-1" d="M144.68,186l2.88-1.49A9.51,9.51,0,0,1,144.68,186Z"/><path class="cls-1" d="M118.51,176.64c-.23.67-.77,1-1.14,1.39-.07.09-.17.05-.23,0s0-.17,0-.17C117.75,177.65,117.79,176.85,118.51,176.64Z"/><path class="cls-1" d="M146.51,49.17l2.1,1.24-.07.13-2.12-1.25Z"/><path class="cls-1" d="M119.05,59.19c-.55-.23-1-.67-1.68-.91C118,58.26,118.2,58.36,119.05,59.19Z"/><path class="cls-1" d="M53.65,64.77l1-2.11.12.06-1,2.1Z"/><path class="cls-1" d="M171.22,140.2l.58-2.42A6.11,6.11,0,0,1,171.22,140.2Z"/><path class="cls-1" d="M173.26,139.39l.45-2.29A5.21,5.21,0,0,1,173.26,139.39Z"/><path class="cls-1" d="M172.45,142.27l.57-2.06A4.28,4.28,0,0,1,172.45,142.27Z"/><path class="cls-1" d="M78.62,114.12c.26.89,1.09,1.3,1.63,2,.13.17.31-.09.47-.13a.77.77,0,0,0,.73,1.15c-.17.43.22.53.45.66s.56.23.69.54c-.63.3-1.07-.18-1.45-.49A16.91,16.91,0,0,1,77.66,114a2.35,2.35,0,0,1-.14-.37l-.12-.85c.3.39.75.66.89,1.18A.23.23,0,0,0,78.62,114.12Z"/><path class="cls-1" d="M121,149.25a1.71,1.71,0,0,1-.63.47c-.26-.39.37-.46.28-.91a5.3,5.3,0,0,0-1.5,1.64.7.7,0,0,1,.77,0l-.42.48c-.2.5-.78.82-.69,1.46l-.32-.07c-.11-.15,0-.41-.21-.51s-.92.18-.43-.53c.84-.37,1-1.28,1.61-1.89l-.1-.09v0c.3-.25.48-.61.82-.82s-.07-.21-.14-.3v0c.18.05.28-.08.42-.16.42-.21.51-.75.94-.94l.29.61-.43.28h-.08l0,0C120.65,148.37,121.07,148.86,121,149.25Z"/><path class="cls-1" d="M109.27,133.48a9.29,9.29,0,0,1,1.48-2.55,8.31,8.31,0,0,0,1.08-3.15c.13-.66,0-1.65.9-2-.6.9-.45,2-.66,2.94a3.07,3.07,0,0,1-.44,1.38c-.1.12-.43.34,0,.54.07,0,0,.2-.07.28a5.87,5.87,0,0,0-1.61,2.12c-.17.26-.23.57-.63.5Z"/><path class="cls-1" d="M147.31,156.74l.27-.11a3.91,3.91,0,0,0,1.7-1.93l-.45.38-.15-.17,1.36-1.1c.24,0,.56-.17.31.31a1.51,1.51,0,0,0-.1.38c0,.57-.44.79-.76,1.11s-.41.52-.12.85c-.16.19-.31.38-.47.56s-.34.34-.53,0-.6-.23-.92,0C147.29,157,147.32,156.86,147.31,156.74Z"/><path class="cls-1" d="M159.28,129.27c.33.37.57-.1.86-.1-.33.65-1,.93-1.51,1.42a4.09,4.09,0,0,0-1.84,1.37c-.15.31-.36.54-.76.44.1-.31.05-.66.42-.87a8.88,8.88,0,0,0,1.74-1.38A7.12,7.12,0,0,0,159.28,129.27Z"/><path class="cls-1" d="M138.75,132.94c-.24,1-1.08,1.35-1.81,1.88-.49.35-1.23.56-1.23,1.37-.13.16-.2.4-.47.4l-.21.21-.23.07-.59.23-.12,0A.18.18,0,0,1,134,137c.4-.46,1-.75,1.29-1.28l1.21-1.13c.32-.12.71-.14.77-.59C138,134,138.21,133.23,138.75,132.94Z"/><path class="cls-1" d="M147.85,131.49l.29.39a3,3,0,0,0-.7.22,17.23,17.23,0,0,0-3,2.5.31.31,0,0,0-.11.36L144,135l-.14-.08c.1-.23.43-.34.37-.67.55-.07.64-.49.7-.93a8,8,0,0,0,2.36-1.87s0-.09,0-.13c.18.16.29,0,.43-.08h0Z"/><path class="cls-1" d="M149.37,156.46c-.29-.33-.15-.58.12-.85s.8-.54.76-1.11c.72-.05.47.58.58.91S149.65,156.47,149.37,156.46Z"/><path class="cls-1" d="M128.6,137.21l.27-.42.19-.21a1.19,1.19,0,0,1,.71-.36c.26,0,.57.15.74-.16a2,2,0,0,1,.9-.69l.29-.14c.14.24-.08.3-.21.41s-.49.33-.44.69l-.26.14a1.79,1.79,0,0,0-1.4.63C129.15,137.34,128.91,137.5,128.6,137.21Z"/><path class="cls-1" d="M142,133.11a.87.87,0,0,1-.33.75l-.3.15c-.73.25-1,1.21-1.85,1.24.36-.4.56-.95,1.1-1.21.07,0,.47-.19.31-.51a2,2,0,0,0,.92-.56Z"/><path class="cls-1" d="M166.64,129.36c.1-.06.2-.17.28-.16s.1.18.06.28a1.89,1.89,0,0,1-.45.67l-2.12,2,0,0c-.21-.38.29-.52.27-.84l0,0A6.78,6.78,0,0,0,166.64,129.36Z"/><path class="cls-1" d="M138.42,134.51c0,.42-.59.44-.53.87v0l-.23.15c-.46,0-.74.27-1,.53a1.82,1.82,0,0,1-.75.43c0-.34.5-.33.48-.69a16.41,16.41,0,0,1,1.93-1.37Z"/><path class="cls-1" d="M132.9,152.59c-.05-.19,0-.42.16-.47.59-.24.72-.83,1-1.28.26,0,.4-.22.62-.3l.17.39-.12.33c-.63.07-.86.68-1.32,1C133.26,152.35,133.13,152.56,132.9,152.59Z"/><path class="cls-1" d="M134.88,150.93l-.17-.39.09-.14a.63.63,0,0,0,.74-.17,4.44,4.44,0,0,0,.72-1.27l.05-.06a.47.47,0,0,0,.36.28v0a5.44,5.44,0,0,1-.9,1.26c-.1.11-.2.15-.21.38C135.51,151.26,135.13,151,134.88,150.93Z"/><path class="cls-1" d="M109.48,164.67c.13.74-.11,1.22-.66,1.35-.23,0-.44,0-.26-.25.28-.42.34-1,.72-1.31Z"/><path class="cls-1" d="M143.42,134.45c-.26-.34.06-.43.25-.54a2.84,2.84,0,0,0,1.05-.93,1,1,0,0,1,1.11-.48c-.26.32-.78.38-.85.88-.46.14-.8.37-.7.94l-.4-.11Z"/><path class="cls-1" d="M139.41,136.2a7.64,7.64,0,0,1,2.17-2.07l.08.32a7,7,0,0,0-1.46,1.41A1.35,1.35,0,0,1,139.41,136.2Z"/><path class="cls-1" d="M164.41,132.12a8.7,8.7,0,0,1-1.35,1.49.4.4,0,0,1-.69,0c-.24-.34.13-.39.3-.53.1.41.26.18.46.07.47-.28.61-1,1.26-1Z"/><path class="cls-1" d="M107.56,160.53c.09-.47.51-.66.81-.95a10.11,10.11,0,0,0,1.17-1.19c.11-.14.19-.32.4-.31a.2.2,0,0,1,.15.13c0,.24-.19.27-.32.38-.41.34-.87.64-1,1.21v0l-.32.18C108,159.85,107.88,160.37,107.56,160.53Z"/><path class="cls-1" d="M153.38,131.37a.93.93,0,0,0-.09-.52,3.58,3.58,0,0,1,1.67-1.14l.19.06.09.15-.28.17c-.31.18-.47.57-.84.62A.85.85,0,0,0,153.38,131.37Z"/><path class="cls-1" d="M163.13,130.24c-.57.11-.86.76-1.48.73a6.1,6.1,0,0,1,1.22-1l.56-.48c.24-.21.39-.58.82-.48v.12A7.15,7.15,0,0,0,163.13,130.24Z"/><path class="cls-1" d="M163.56,134.36a13.51,13.51,0,0,1,1.78-2.38c-.11.83-.85,1.1-.93,1.74l-.28.26C164,134.2,163.77,134.26,163.56,134.36Z"/><path class="cls-1" d="M155.5,138.71l-.27-.34c-.53-.47-.17-.61.26-.73.09.2.14.46.44.18s.35-.11.39.17v0a1.45,1.45,0,0,0-.64.33c.14.27.29-.21.41.1-.23.05-.34.32-.6.32Z"/><path class="cls-1" d="M138.16,152.05c-.17.21-.28.5-.62.52s-.43.5-.8.29c.09-.57.55-.77,1-1Z"/><path class="cls-1" d="M129.18,159.54c-.39.21-.41.67-.77.86a.2.2,0,0,1-.27-.13.58.58,0,0,1,.17-.61c.18-.16.32-.42.62-.32A2.12,2.12,0,0,1,129.18,159.54Z"/><path class="cls-1" d="M139,158.43a3.64,3.64,0,0,1-1.66,1.42c-.17.07-.17.06-.12-.24a3.21,3.21,0,0,1,.52-.39C138.17,159,138.39,158.43,139,158.43Z"/><path class="cls-1" d="M128.61,138.2l-1.27,1.23c-.18.17-.39.31-.37.6l-.42-.14v-.21c.34-.37.93-.48,1.1-1h0c.47.07.55-.55,1-.55h0S128.61,138.17,128.61,138.2Z"/><path class="cls-1" d="M134.46,136.16c-.2.54-.77.61-1.17.9-.09.07-.17-.09-.15-.22l1.05-.84a.2.2,0,0,1,.27.12Z"/><path class="cls-1" d="M157.61,130.19c.62-.3,1-.94,1.57-1.24,0,.1.07.21.1.31a6.62,6.62,0,0,1-1.09.89Z"/><path class="cls-1" d="M107.17,165.71l.1.12a3.47,3.47,0,0,1-1.07,1.36l-.15-.67C106.61,166.51,106.83,166,107.17,165.71Z"/><path class="cls-1" d="M108.47,160l.32-.18h0c.09.14.16.3,0,.39-.53.26-.58.84-.94,1.25-.12,0-.19-.62-.48-.1Z"/><path class="cls-1" d="M157,129.21c.1.19-.08.28-.14.4-.39.1-.64.47-1.07.51-.14,0-.19.18-.12.33a1,1,0,0,0-.81.29l.13-.4c.16-.15.42-.1.54-.3.33-.07.51-.35.76-.54C156.58,129.61,156.7,129.25,157,129.21Z"/><path class="cls-1" d="M151.14,143.81a1.24,1.24,0,0,1-.43.88,1.46,1.46,0,0,0-.46.94.25.25,0,0,1-.35.12C150,144.89,150.68,144.43,151.14,143.81Z"/><path class="cls-1" d="M131.39,154a.24.24,0,0,1,.18-.35c.43.07.54-.3.79-.48.12.92,0,1.06-.94.82Z"/><path class="cls-1" d="M63.2,115.64c-.62-.1-.83.57-1.34.68.42-.29.58-1,1.31-.8Z"/><path class="cls-1" d="M56.89,119.67l1.2-1.23.14.14-1.32,1.25Z"/><path class="cls-1" d="M128.06,138.11c.18-.69.79-.41,1.22-.52-.14.28-.49.29-.66.53h0c-.18-.4-.38.11-.56,0Z"/><path class="cls-1" d="M141.82,133a.79.79,0,0,1,.46-.56l.16,0,.09.17c-.08-.06-.12,0-.15.07h0c-.08,0-.12.06-.13.15h0c-.09,0-.14,0-.13.14h0Z"/><path class="cls-1" d="M152.49,133c.14-.08.26-.18.43-.13v.23l-.16.15h-.15A.18.18,0,0,1,152.49,133Z"/><path class="cls-1" d="M149.49,149.18v-.3l0,0c.25,0,.35-.18.5-.29h.14C150.07,149,149.76,149.06,149.49,149.18Z"/><path class="cls-1" d="M163.29,132.31c0-.08-.09-.15-.13-.22s.15-.25.25-.13S163.32,132.18,163.29,132.31Z"/><path class="cls-1" d="M149.82,149.32s0-.07.05-.1h.06l-.06.09Z"/><path class="cls-1" d="M152.79,133.2h0Z"/><path class="cls-1" d="M110.55,155.25l0,0h0Z"/><path class="cls-1" d="M162.88,132.55h0Z"/><polygon class="cls-1" points="136.44 151.22 136.46 151.19 136.46 151.23 136.44 151.22"/><path class="cls-1" d="M62.92,115.16c-.13,0-.31.06-.4,0-.6-.5-1.1-.21-1.64.29.21-.74.76-.85,1.29-1,.12.42.34.49.7.27s.52-.84,1.11-1.11A10.67,10.67,0,0,0,62.92,115.16Z"/><path class="cls-1" d="M85.39,120c.45-.24.78.13,1.17.22a3,3,0,0,1,.68.31c-.2.36-.35.34-.61,0s-.5-.06-.74,0-.24.19-.41.25l.47-.58-.54-.26Z"/><path class="cls-1" d="M64.09,114.56c.4-1.06,1.36-1.6,2.11-2.34C65.6,113.1,64.69,113.69,64.09,114.56Z"/><path class="cls-1" d="M85.39,120l0,0c-.64.23-1.19,0-1.3-.56v0A1.16,1.16,0,0,1,85.39,120Z"/><path class="cls-1" d="M84.1,119.36v0a.64.64,0,0,1-.78-.25.73.73,0,0,0-.18-.17l-.72-.41.14-.22c.35-.05.45.3.71.41s.46.25.74.13A.59.59,0,0,0,84.1,119.36Z"/><path class="cls-1" d="M85.54,144.41l-2,1.83,0,.06,2-1.8Z"/><path class="cls-1" d="M73.67,143.3c-.18.74-.92,1-1.29,1.62C72.52,144.14,73.38,144,73.67,143.3Z"/><path class="cls-1" d="M107.83,114.75l-1.33,1.47A3.94,3.94,0,0,1,107.83,114.75Z"/><path class="cls-1" d="M78,125.38l-1.57,1.56,0,0L78,125.42Z"/><path class="cls-1" d="M105.32,113a4.3,4.3,0,0,1-1.71,1.33C104.13,113.87,104.78,113.53,105.32,113Z"/><path class="cls-1" d="M77.92,141.67l1.57-1.56A6,6,0,0,1,77.92,141.67Z"/><path class="cls-1" d="M69.25,115.14l-1.09,1.25-.09-.09,1.11-1.23Z"/><path class="cls-1" d="M74.38,144l-1.16,1.32,0,0Z"/><path class="cls-1" d="M70.08,116.93l-1.25,1.43-.12-.12A9,9,0,0,1,70.08,116.93Z"/><path class="cls-1" d="M75.23,115.32l1.25-1.16.07.07-1.21,1.19Z"/><path class="cls-1" d="M87.93,136a4.43,4.43,0,0,1-1.27,1.28c.39-.44.77-.88,1.17-1.32Z"/><path class="cls-1" d="M89.88,127.56l-1.2,1.14-.07-.06,1.3-1Z"/><path class="cls-1" d="M85.66,88c-.11.58-.22,1.25-.37,1.91a2.53,2.53,0,0,0,.22,2,.59.59,0,0,1,0,.65c-.17.23-.41.1-.63,0a3.22,3.22,0,0,1-2.14-3.14,2.43,2.43,0,0,1,1.51-1.74c.55-.27.57-.52.33-1-.14-.26-.22-.55-.38-.79a1.1,1.1,0,0,0-1.9.09,4,4,0,0,0-.5,1.41c0,.17-.08.31-.3.28a.32.32,0,0,1-.28-.25,3.38,3.38,0,0,1,1.52-2.78,2.1,2.1,0,0,1,2.28,1A5.21,5.21,0,0,1,85.66,88ZM84.57,91.4a3.31,3.31,0,0,1,.2-2.75.22.22,0,0,0,0-.14c0-.12.08-.28-.07-.37s-.26,0-.37.1C83.2,88.91,83.26,90.42,84.57,91.4Z"/><path class="cls-1" d="M101.2,84.14a5,5,0,0,1,2.86.67A2.57,2.57,0,0,1,105.14,86c.09.19.21.38.07.57s-.4.15-.62.09a21.78,21.78,0,0,0-2.62-.88,7.49,7.49,0,0,0-5.08.53c-.18.09-.38.24-.54,0s.09-.36.21-.5a5.66,5.66,0,0,1,3.82-1.67A7.48,7.48,0,0,1,101.2,84.14Z"/><path class="cls-1" d="M109,87.87c-1.59,2.77-1,5.6.06,8.27s-.46,3.7-2.52,4c-.3,0-.82.34-.93-.15s.49-.34.75-.46a10.91,10.91,0,0,0,1.64-.82,1.14,1.14,0,0,0,.51-1.57,16.14,16.14,0,0,1-1.19-6.24,5,5,0,0,1,.78-2.57C108.31,88,108.56,87.7,109,87.87Z"/><path class="cls-1" d="M99.61,88.79l-1.78.48c-.18,0-.36.14-.46-.09s0-.34.17-.46a5.29,5.29,0,0,1,4.75-.32A1.46,1.46,0,0,1,103,90c-.42-.45-.68-.93-1.28-1a2.15,2.15,0,0,1-.26,1.86,1.48,1.48,0,0,1-1.74.69,1.43,1.43,0,0,1-.56-1.73A9.7,9.7,0,0,1,99.61,88.79Z"/><path class="cls-1" d="M113,90.92c-.39-.12-.48-.71-.82-.6s-.08.58-.18.89c-.26.89-.78,1.45-1.37,1.33s-1-1-.78-1.85c0-.14.08-.26,0-.4a2.31,2.31,0,0,0-1,.44c-.1.07-.2.12-.3,0s0-.15,0-.23a3.07,3.07,0,0,1,4.18-.73C113.08,90.07,113.36,90.41,113,90.92Z"/><path class="cls-1" d="M104.71,103.37a10.55,10.55,0,0,1-6.62-2.44c-.17-.15-.5-.33-.29-.6s.48,0,.72.11a12,12,0,0,0,6.2,2.16,5.53,5.53,0,0,0,1.35-.14c.17,0,.46-.19.52.11a.47.47,0,0,1-.41.55A4.28,4.28,0,0,1,104.71,103.37Z"/><path class="cls-1" d="M106.35,98.84a4.51,4.51,0,0,1-3.33.09c-.71-.28-.51-1.7.29-2.22a2.58,2.58,0,0,1-.07,1c-.1.42,0,.68.53.74C104.63,98.55,105.49,98.71,106.35,98.84Z"/><path class="cls-1" d="M100.35,104.23a18.87,18.87,0,0,0,2.33.58,7.4,7.4,0,0,0,1.76,0c.15,0,.34,0,.37.2s-.08.24-.2.32c-.8.51-3.66,0-4.22-.81A.94.94,0,0,1,100.35,104.23Z"/><path class="cls-1" d="M133,146.05c-1.76,1-3.34,2.06-4.94,3.13a12.78,12.78,0,0,1-2.85,1.4.28.28,0,0,1-.35-.06c-.22-.2,0-.38,0-.54.53-.85,1.08-1.68,1.6-2.53,1.23-2,2.64-3.91,4-5.85.45-.63,1.19-.56,1.8-.66,2-.31,3.93-.83,5.9-1.19.52-.09,1-.24,1.53-.33s.54.12.38.51a1.22,1.22,0,0,1-.17.29,60.28,60.28,0,0,1-3.95,5.2c-.5.52-.93,1.12-1.39,1.67-.16.2-.3.3-.53,0S133,146.75,133,146.05Zm-2.2-2.83c0-.25-.22-.43-.38-.25-.31.35-.81.6-.77,1.17-.66.55-.88,1.42-1.52,2a1.16,1.16,0,0,1,.66-.18,14.62,14.62,0,0,0-1.31,1.3c-.31.39-.73.77-.69,1.36a2.1,2.1,0,0,0-.81,1c.58-.08.79-.54,1.09-.82s-.15-.18-.3-.2c.06,0,.14-.11.16-.1.66.36,1,0,1.29-.54a.79.79,0,0,1,.56-.34c0,.22-.36.26-.28.58a16.88,16.88,0,0,1,3.1-2.21,6.55,6.55,0,0,0,2.1-1.4c.16-.15.36-.43.55-.2s-.14.3-.33.37a.08.08,0,0,0,0,.15c.36.27,0,.41-.11.58s-.26.26-.11.41.32.05.45-.09c-.13.21-.08.39.17.26a1.73,1.73,0,0,0,1.08-1.18c1-.89,1.52-2.14,2.42-3.11.08-.09.2-.22,0-.33s-.24-.14-.37,0l-.4.43c0-.22.06-.36.08-.51.44-.15.62-.54,1-.91-.55,0-.7.49-1.07.6-.12,0,0,.24.1.32a.36.36,0,0,0-.46.17c-.09.14-.16.23-.3.09s0-.22.13-.31.22-.39.35-.7a6.85,6.85,0,0,0-1.39.48c-.35.22-.45.4-.18.72l-.58-.33,0,0c-.15-.19-.26-.35-.58-.15-.64.39-1.12,1-1.76,1.35a4,4,0,0,1,1.46-1.35,2,2,0,0,0-1.23.45s0-.12,0-.12a2.08,2.08,0,0,0-1.89,1,2.43,2.43,0,0,1,1.23-.41C131.55,142.62,130.92,142.63,130.77,143.22Z"/><path class="cls-1" d="M148.24,139.73a3.5,3.5,0,0,1-2.21,2.86,1.55,1.55,0,0,1-1.46-.56c-.38-.42-.16-.87,0-1.32a6.93,6.93,0,0,1,1.87-2.12c.21-.19.5-.35.74-.16C147.68,138.79,148.29,139.08,148.24,139.73Zm-.92.76c-.06-.21.06-.45-.15-.62l0,0c-.1-.23.35-.5-.08-.7s-.51.1-.7.26a7,7,0,0,0-.71.73c-.06.07-.19.19,0,.26s.16,0,.24-.06a1.15,1.15,0,0,0-.67,1.1l1.23-1.11s0,.07,0,.1v.09c.06.2-.3.33-.08.55a2.25,2.25,0,0,1-1.09.5c.76.47.91.42,1.57-.5a1.09,1.09,0,0,0,.44-.65Z"/><path class="cls-1" d="M126.48,154.25c.2-.05.36,0,.39.23s-.19.25-.36.29L121.84,156c-.45.11-.86.42-1.35.33-.14,0-.14.42-.35.06s-.24-.47,0-.7a.74.74,0,0,1,.41-.21c1.9-.26,3.75-.75,5.62-1.17A1.36,1.36,0,0,1,126.48,154.25Z"/><path class="cls-1" d="M128.21,151.75c-1,.95-2.31.71-3.41,1.09a12,12,0,0,1-1.57.39c-.22.05-.56.18-.64-.15s.22-.56.53-.59a10.6,10.6,0,0,0,1.25-.24c1.12-.23,2.26-.38,3.36-.69C127.91,151.51,128,151.65,128.21,151.75Z"/><path class="cls-1" d="M66.41,141.51a4.37,4.37,0,0,1-.61.54c-.39.26-.21.41.06.57a5.33,5.33,0,0,1-2.14-1c.26-.27.49-.09.7.07.6.46,1.16.62,1.68-.1C66.16,141.55,66.3,141.55,66.41,141.51Z"/><path class="cls-1" d="M51.18,137.42c.8-.74,1.65-1.43,2.38-2.23A7.69,7.69,0,0,1,51.18,137.42Z"/><path class="cls-1" d="M54.81,129.35c-.89.47-1.33,1.41-2.08,2-.12.09-.22.21-.34.31a9.66,9.66,0,0,1,2.28-2.53C54.81,129,54.8,129.25,54.81,129.35Z"/><path class="cls-1" d="M64,127.13l2.13-2,.08.07-2.18,2Z"/><path class="cls-1" d="M54.17,125.53a.73.73,0,0,0,.57-.57c0-.51.35-.6.74-.66a3.24,3.24,0,0,1-1.15,1.36C54.23,125.75,54.2,125.6,54.17,125.53Z"/><path class="cls-1" d="M63.74,141.67c-.22,0-.47.19-.67-.14,0-.06-.27-.51-.61-.22,0,0,0-.23,0-.35C63,141,63.51,141.11,63.74,141.67Z"/><path class="cls-1" d="M52.68,136.67c-.19.72-.81,1-1.32,1.44C51.61,137.46,52.38,137.28,52.68,136.67Z"/><path class="cls-1" d="M56.1,123.59a5.23,5.23,0,0,1,1.09-1.21C56.89,122.84,56.84,123.53,56.1,123.59Z"/><path class="cls-1" d="M59.21,132.18l1.24-1.39.12.12A7.48,7.48,0,0,1,59.21,132.18Z"/><path class="cls-1" d="M57.17,122.41c.47-.62.85-1.36,1.73-1.52C58.19,121.24,57.78,121.94,57.17,122.41Z"/><path class="cls-1" d="M59.77,135.78l-1.35,1.43-.1-.09,1.35-1.44Z"/><path class="cls-1" d="M56.72,130.19c-.23.75-.79.95-1.11,1.37C55.77,131,56.27,130.74,56.72,130.19Z"/><path class="cls-1" d="M56.66,124a3,3,0,0,1-1.29,1.23Z"/><path class="cls-1" d="M57.51,134.38l-1.13,1.21,0,0,1.13-1.25Z"/><path class="cls-1" d="M146.72,129.48c-.49.24-.86.64-1.33.91C145.74,130,146.05,129.47,146.72,129.48Z"/><path class="cls-1" d="M120.13,143.7a1.94,1.94,0,0,1-.89,1.15c-.87.2-1,1.16-1.71,1.39.12-.53.57-.82.92-1.16a13.42,13.42,0,0,0,1.26-1.35C119.86,143.53,120,143.52,120.13,143.7Z"/><path class="cls-1" d="M124.94,136.22l-1.81,1.71C123.39,136.91,124.19,136.58,124.94,136.22Z"/><path class="cls-1" d="M121.73,140.56c-.17.52-.68.71-.73,1.2,0,.1-.11.12-.21.07s-.13-.24-.06-.34A2.59,2.59,0,0,1,121.73,140.56Z"/><path class="cls-1" d="M97.87,116.19c0-.1,0-.27-.08-.27s-.23.15-.33.26c-.08-.44.33-.47.55-.67a3.91,3.91,0,0,1,.8-.63Z"/><path class="cls-1" d="M114.8,136.05l-1.6,1.42c.54-.47.87-1.15,1.62-1.41Z"/><path class="cls-1" d="M55.06,123a27.22,27.22,0,0,1,2.15-2.28c.07-.08.15-.15.35-.34-.17.67-.64.86-.93,1.19a12.13,12.13,0,0,0-1.19,1.29c-.1.14-.21.24-.39.13Z"/><path class="cls-1" d="M110.45,157c-.49-.26-.17-.51,0-.77s.75-.53.65-1.08c.68-.15.62-.91,1.06-1.29.09.21-.19.41,0,.62a6.92,6.92,0,0,0-1.38,2.05C110.46,156.6,110.46,156.81,110.45,157Z"/><path class="cls-1" d="M112.84,153.08a6.32,6.32,0,0,1,1.26-2.44A14.82,14.82,0,0,1,112.84,153.08Z"/><path class="cls-1" d="M117.14,148.9l-1.25.89c0-.11,0-.25.1-.31.45-.42,1.05-.71,1.28-1.37C117.31,148.42,117,148.61,117.14,148.9Z"/><path class="cls-1" d="M137.48,150.18c.16.48.46.54.92.14a6.48,6.48,0,0,1,1.2-1c-.21.79-1.08,1.08-1.37,1.81l0,0-1.27.91c0-.23.34-.42.1-.7a4,4,0,0,0,.46-.46c.2-.26-.07-.2-.19-.23l-.2,0C136.84,150.23,137.32,150.32,137.48,150.18Z"/><path class="cls-1" d="M139.26,147.82l-2.91,2.47a8.86,8.86,0,0,1,2.77-2.65Z"/><path class="cls-1" d="M140.7,147.11c-.82,1-1.86,1.76-2.64,2.78-.12.16-.38.21-.58.31-.3-.12-.2-.3,0-.35.6-.14.84-.66,1.23-1A7.09,7.09,0,0,1,140.7,147.11Z"/><path class="cls-1" d="M135,151.82c-.08-.29-.24-.13-.34,0a2.69,2.69,0,0,0-.73.88c-.11.26-.35.29-.74.4a7.06,7.06,0,0,1,1.83-1.7C135.17,151.52,135.09,151.67,135,151.82Z"/><path class="cls-1" d="M140.89,147.94a.29.29,0,0,1,.14-.3c.35.13.4-.21.56-.37s.38-.6.81-.43a4.07,4.07,0,0,0-1.1,1.09Z"/><path class="cls-1" d="M137.09,150.69l.2,0c0,.27-.38.39-.38.69-.08,0-.22,0-.25-.13.4-.08-.14-.49.21-.59v.06l0-.06Z"/><path class="cls-1" d="M139.22,150.54c.75,0,1.09-.68,1.56-1.1s.84-.86,1.29-1.26a5.12,5.12,0,0,1-1.16,1.53c-.27.3-.64.5-.91.79a.46.46,0,0,1-.78,0Z"/><path class="cls-1" d="M139.22,150.54v0a8,8,0,0,1-1.06,1.53l-.42-.16.45-.75,0,0A4.05,4.05,0,0,0,139.22,150.54Z"/><path class="cls-1" d="M141.1,132.63l-.22.55c-.29.1-.64.29-.83.32-.73.12-1,.92-1.63,1l-.14-.1a4.18,4.18,0,0,1,1.6-1.15A3.23,3.23,0,0,0,141.1,132.63Z"/><path class="cls-1" d="M158.63,130.59l0,.28c-.62.18-1,.73-1.37,1.13-.26.26-.35.3-.49,0A4.09,4.09,0,0,1,158.63,130.59Z"/><path class="cls-1" d="M146.78,131.54a5.24,5.24,0,0,1-1,1,2,2,0,0,1-.17-.18C146,132,146,131.18,146.78,131.54Z"/><path class="cls-1" d="M134.46,136.12c.17-.36.58-.43.82-.7s.43-.29.38-.6l.59-.43.27.24-1.21,1.13c-.28.14-.5.4-.85.4Z"/><path class="cls-1" d="M156.93,130.45a.35.35,0,0,1-.09.49c-.74.44-1.29,1.11-2,1.61a.35.35,0,0,1-.44,0v0l1-1c.43.11.63-.23.86-.47s.36-.52.72-.56Z"/><path class="cls-1" d="M156.93,130.45h0l-.1-.32c.65-.37,1.05-1.08,2-1.36a6.66,6.66,0,0,1-1.16,1.05c-.16.12-.45.18-.34.49Z"/><path class="cls-1" d="M154.42,132.54v0l-.13.26c-.29-.18-.5,0-.7.17s-.42.24-.65,0v-.27h0l.06-.05c.31-.18.69-.22.93-.53C153.74,132.81,154.29,132.39,154.42,132.54Z"/><path class="cls-1" d="M129.06,136.58c-.2-.07-.38-.18-.6-.1-.13-.45.38-.53.54-.67.45-.42,1-.74,1.52-1.13-.06.14-.22.23-.19.41,0,0,.11,0,.13,0,.19-.11.36-.5.58-.23s-.11.39-.37.52-.48.14-.47.46h0l-.13.16-.17,0-.15.17A1.19,1.19,0,0,0,129.06,136.58Z"/><path class="cls-1" d="M146.37,133.45c-.32.82-1.12,1.06-1.8,1.45C145,134.16,145.75,133.9,146.37,133.45Z"/><path class="cls-1" d="M127.64,138.24l.12-.14h.29l-.42.56h0l-.14-.27C127.61,138.38,127.63,138.31,127.64,138.24Z"/><path class="cls-1" d="M152.92,132.67l.11.05-.06.06A1.17,1.17,0,0,1,152.92,132.67Z"/><path class="cls-1" d="M155.51,130.05l-.29-.14.14-.15.15-.07Z"/><path class="cls-1" d="M147,154.63l.15.15Z"/><path class="cls-1" d="M138,20.78l1.21-1.09,0,0L138,20.8Z"/><path class="cls-1" d="M136,21.13,134.7,22.2l0,0,1.26-1.08Z"/><path class="cls-1" d="M71.33,20.22c.58-.4.9-1.08,1.57-1.39A7.15,7.15,0,0,1,71.33,20.22Z"/><path class="cls-1" d="M158.7,35.16l1.49-1.43,0,0-1.5,1.42Z"/><path class="cls-1" d="M153.88,25.17,155,24h0l-1.15,1.15Z"/><path class="cls-1" d="M103.33,29.37a21.15,21.15,0,0,1,2.2-2.34c-.08.42-.46.6-.71.88C104.34,28.41,103.83,28.89,103.33,29.37Z"/><path class="cls-1" d="M112.55,27.84l-1.92,1.75,0,.05,1.88-1.8Z"/><path class="cls-1" d="M110.6,30.31c-.34.64-1,1-1.4,1.59A5,5,0,0,1,110.6,30.31Z"/><path class="cls-1" d="M112.09,17.2,110.29,19A4.91,4.91,0,0,1,112.09,17.2Z"/><path class="cls-1" d="M104.42,20.23a5.26,5.26,0,0,1,1.65-1.67Z"/><path class="cls-1" d="M107.66,16.08l-1.33,1.36A7.19,7.19,0,0,1,107.66,16.08Z"/><path class="cls-1" d="M105.74,18.24l-1.24,1.13h0l1.17-1.23Z"/><path class="cls-1" d="M103,25.22c.19-.8,1-1.1,1.42-1.66-.4.63-1.1,1-1.42,1.66Z"/><path class="cls-1" d="M104.73,24a10.47,10.47,0,0,1-1.67,1.52A6.89,6.89,0,0,1,104.73,24Z"/><path class="cls-1" d="M104.38,26.8l-1.26,1.1,0,0,1.15-1.21Z"/><path class="cls-1" d="M112.4,30.18c-.6.47-1,1.16-1.73,1.51C111.28,31.23,111.62,30.44,112.4,30.18Z"/><path class="cls-1" d="M79.93,25.18c-.59.34-.9,1-1.5,1.33.49-.46.76-1.15,1.51-1.33Z"/><path class="cls-1" d="M87.06,30.56l-1.25,1.2-.07-.07L87,30.56S87.05,30.51,87.06,30.56Z"/><path class="cls-1" d="M117,23.42l1.39-1.29-1.29,1.37Z"/><path class="cls-1" d="M161,79.28a.46.46,0,0,0,.24.51,1.43,1.43,0,0,1,.4,2,20.91,20.91,0,0,1-2.37,3.4c-.8.89-1.27,2-2,2.94-.43.58-.86,1.16-1.31,1.73a1.5,1.5,0,0,1-1.65.54.85.85,0,0,0-1,.3c.25-.33.34-.51-.05-.83a8.18,8.18,0,0,1-1.21-1.51c-.1-.13-.16-.28-.37-.23-.05-.51-.47-.8-.69-1.22s-.48-.82-.69-1.25a1.62,1.62,0,0,1,.49-2.21,1.72,1.72,0,0,1,2.21.36,9.63,9.63,0,0,1,1.27,1.63c.39.61.52.63.95,0,1.12-1.54,2.19-3.12,3.28-4.68.23-.33.49-.65.74-1s.64-.63,1.15-.35A.39.39,0,0,0,161,79.28ZM154.74,89.5a1.08,1.08,0,0,0,.92-.46c.93-1.18,1.58-2.53,2.49-3.73s1.82-2.54,2.73-3.8a.66.66,0,0,0-.19-1.09c-.58-.38-.83-.34-1.22.26-1.28,2-2.67,3.95-4.09,5.85-.52.7-.83.68-1.3-.08a13,13,0,0,0-1.58-2c-.58-.61-1.25-.51-1.57.18-.18.38,0,.67.17,1A18,18,0,0,0,153.6,89,1.34,1.34,0,0,0,154.74,89.5Z"/><path class="cls-1" d="M96.13,20.89c0,.1-.06.25,0,.31s.21,0,.28-.09a.65.65,0,0,1,.46-.22c-1.08.51-.58,1.41-.48,2.16.19,1.35.49,2.69.71,4a.39.39,0,0,0,.32.36,1.09,1.09,0,0,1-1.23.66c-.52,0-1,0-1.56,0s-.81-.19-.69-.83c.28-1.44.59-2.87.85-4.32A16.92,16.92,0,0,0,95,21c0-.39,0-.84.41-.91s.51.34.58.69C96,20.81,96.08,20.85,96.13,20.89Zm-.53,2.62h-.13c-.2,1.06-.39,2.13-.6,3.2-.07.37,0,.56.44.52.22,0,.45,0,.68,0s.25-.06.22-.25C96,25.81,95.8,24.66,95.6,23.51Z"/><path class="cls-1" d="M83.14,180.87a2,2,0,0,1-1.58-.71A14,14,0,0,1,79,176.87a1.81,1.81,0,0,1,.36-2.18,1.12,1.12,0,0,1,1.62-.17,7.15,7.15,0,0,1,1.86,1.94c.26.37.34.37.62,0,1.37-1.72,2.65-3.51,4.09-5.19a.65.65,0,0,1,1-.17c1.62.89,1.85,1.86.62,3.25a74.17,74.17,0,0,0-4.48,6A1.57,1.57,0,0,1,83.14,180.87Zm6-8c.05-.58-.49-.71-.81-1s-.4.18-.54.36l-1.43,1.83c-.88,1.12-1.76,2.25-2.65,3.37-.27.34-.52.53-1,.08-.64-.65-1.07-1.47-1.76-2.07s-1.21-.48-1.44.45c-.08.32.11.53.22.75a10.21,10.21,0,0,0,2,2.54c1.24,1.23,1.86,1.13,3-.2.71-.84,1-1.9,1.79-2.72s1.41-1.66,2.13-2.48A1.76,1.76,0,0,0,89.1,172.86Z"/><path class="cls-1" d="M134.68,141.52a2.57,2.57,0,0,1-1.19,1.2c-.25.16-.4.57-.94.42a25.16,25.16,0,0,1,2.15-1.59Z"/><path class="cls-1" d="M146.77,140.57h-.28v-.09a1.68,1.68,0,0,1,.71-.58l0,0C147.26,140.23,146.79,140.27,146.77,140.57Z"/><path class="cls-1" d="M147.16,140.58c0-.09,0-.21.16-.09v0Z"/><path class="cls-1" d="M130.23,145.9c.28-.55,1-.74,1.16-1.38.35-.07.53-.46.91-.48a9.48,9.48,0,0,1-1.47,1.76A.56.56,0,0,1,130.23,145.9Z"/><path class="cls-1" d="M128.73,147.68c0-.45.44-.58.69-.85s.55-.63.82-1c.29.41-.2.46-.34.66A4.38,4.38,0,0,1,128.73,147.68Z"/><path class="cls-1" d="M133.36,144.11a2.07,2.07,0,0,1-1.3,1Z"/><path class="cls-1" d="M130.79,143.57c.54-.24,1-.74,1.58-.83l-2.56,2.48c-.05-.52.5-.56.7-.89S130.92,143.91,130.79,143.57Z"/><path class="cls-1" d="M130.18,145.48a5,5,0,0,1-1.16,1.36c-.12.1-.23.29-.37.12s-.07-.32.18-.39a2.33,2.33,0,0,0,.45-.27C129.72,146.17,129.7,145.55,130.18,145.48Z"/><path class="cls-1" d="M146.43,141.12c.16-.07.32-.27.48,0Z"/><path class="cls-1" d="M146.76,140.55h.43a.38.38,0,0,1-.38.22C146.7,140.77,146.73,140.64,146.76,140.55Z"/></g></svg>